<svg height="511pt" viewBox="-77 0 511 511.99923" width="511pt" xmlns="http://www.w3.org/2000/svg"><path d="m126.929688 298.871094c14.558593 10.585937 34.941406 7.363281 45.523437-7.195313 10.585937-14.558593 7.363281-34.941406-7.195313-45.523437-14.558593-10.585938-56.613281-23.121094-67.199218-8.5625-10.585938 14.558594 14.3125 50.699218 28.871094 61.28125zm0 0" fill="#29ce69"/><path d="m165.257812 246.160156c-5.195312-3.78125-13.902343-7.816406-23.425781-10.769531-2.742187 7.453125-5.765625 19.132813-4.734375 32.660156 1.058594 13.835938-2.175781 26.136719-5.003906 33.898438 13.898438 6.628906 30.980469 2.636719 40.359375-10.265625 10.585937-14.558594 7.363281-34.941406-7.195313-45.523438zm0 0" fill="#00c140"/><path d="m161.660156 173.238281h34.046875v216.003907h-34.046875zm0 0" fill="#73da8c"/><path d="m178.773438 101.359375 74.367187-24.121094c12.820313-4.15625 19.367187-18.335937 14.292969-30.824219-13.417969-33.039062-41.753906-42.730468-62.785156-45.109374-13.761719-1.558594-25.828126 9.160156-25.835938 23.007812zm0 0" fill="#ffabcd"/><path d="m178.808594 35.207031-.035156 66.152344 62.925781-20.410156c-8.597657-26.53125-33.496094-45.726563-62.890625-45.742188zm0 0" fill="#ff83b4"/><path d="m178.773438 101.359375.039062-78.175781c.007812-13.480469-11.453125-24.085938-24.898438-23.121094-35.566406 2.550781-53.539062 26.503906-62.304687 45.773438-5.734375 12.605468.730469 27.390624 13.898437 31.679687zm0 0" fill="#ffd2e3"/><path d="m178.808594 35.207031c-29.386719 0-54.316406 19.167969-62.941406 45.679688l62.90625 20.472656s.046874-66.152344.035156-66.152344zm0 0" fill="#ffabcd"/><path d="m178.773438 101.359375-74.339844-24.195313c-12.820313-4.171874-26.445313 3.449219-29.683594 16.535157-8.566406 34.617187 8.664062 59.109375 24.28125 73.402343 10.21875 9.347657 26.277344 7.769532 34.421875-3.429687zm0 0" fill="#ff83b4"/><path d="m115.867188 80.886719c-2.097657 6.445312-3.246094 13.324219-3.246094 20.472656 0 21.992187 10.738281 41.460937 27.246094 53.492187l38.90625-53.492187zm0 0" fill="#ff5d9c"/><path d="m178.773438 101.359375-45.984376 63.226563c-7.929687 10.902343-4.890624 26.21875 6.554688 33.339843 30.277344 18.84375 58.894531 10.027344 77.3125-.410156 12.046875-6.828125 15.507812-22.589844 7.375-33.796875zm0 0" fill="#ffabcd"/><path d="m217.625 154.890625-38.851562-53.53125-38.90625 53.492187c10.921874 7.957032 24.359374 12.660157 38.90625 12.660157 14.519531 0 27.941406-4.691407 38.851562-12.621094zm0 0" fill="#ff83b4"/><path d="m178.773438 101.359375 45.921874 63.273437c7.917969 10.910157 23.421876 12.753907 33.734376 4.070313 27.277343-22.972656 27.734374-52.914063 23.5-73.65625-2.773438-13.566406-16.691407-21.730469-29.867188-17.457031zm0 0" fill="#ffd2e3"/><path d="m244.925781 101.359375c0-7.125-1.140625-13.980469-3.222656-20.410156l-62.929687 20.410156 38.851562 53.53125c16.539062-12.027344 27.300781-31.515625 27.300781-53.53125zm0 0" fill="#ffabcd"/><path d="m211.011719 101.359375c0 17.804687-14.433594 32.238281-32.238281 32.238281-17.804688 0-32.238282-14.433594-32.238282-32.238281s14.433594-32.238281 32.238282-32.238281c17.804687 0 32.238281 14.433594 32.238281 32.238281zm0 0" fill="#fcf5af"/><path d="m230.417969 298.925781c-14.570313 10.570313-34.949219 7.328125-45.519531-7.242187-10.570313-14.570313-7.324219-34.949219 7.242187-45.515625 14.570313-10.570313 56.640625-23.066407 67.210937-8.496094 10.566407 14.570313-14.363281 50.683594-28.933593 61.253906zm0 0" fill="#b9ecc2"/><path d="m340.121094 405.769531c-16.179688-17.640625-40.078125-24.035156-61.839844-18.703125-13.558594 3.328125-27.960938-1.46875-36.691406-12.363281-14.777344-18.429687-37.472656-30.238281-62.9375-30.253906-25.464844-.011719-48.171875 11.773437-62.96875 30.191406-8.730469 10.863281-23.117188 15.6875-36.648438 12.339844-21.882812-5.414063-45.9375 1.058593-62.128906 18.855469-23.09375 25.386718-21.636719 65.113281 3.300781 88.6875 12.304688 11.632812 27.953125 17.34375 43.546875 17.347656v.011718l229.625.117188v-.003906c15.671875.011718 31.402344-5.75 43.730469-17.46875 24.894531-23.664063 26.226563-63.441406 3.011719-88.757813zm0 0" fill="#e7896e"/><g fill="#dd6642"><path d="m123.628906 512c14.613282-15.363281 28.984375-38.648438 31.761719-72.078125 5.992187-72.09375 62.355469-85.359375 62.355469-85.359375-11.550782-6.394531-24.957032-10.019531-39.09375-10.023438-25.464844-.015624-48.171875 11.769532-62.96875 30.1875-8.730469 10.867188-23.117188 15.6875-36.648438 12.339844-21.882812-5.410156-45.9375 1.058594-62.128906 18.855469-23.09375 25.386719-21.636719 65.113281 3.300781 88.691406 12.304688 11.632813 27.953125 17.34375 43.542969 17.34375v.011719zm0 0"/><path d="m228.230469 424.160156c0 9.046875-7.332031 16.378906-16.378907 16.378906-9.046874 0-16.382812-7.332031-16.382812-16.378906s7.335938-16.382812 16.382812-16.382812c9.046876 0 16.378907 7.335937 16.378907 16.382812zm0 0"/><path d="m271.125 456.921875c0 9.046875-7.332031 16.378906-16.378906 16.378906s-16.382813-7.332031-16.382813-16.378906 7.335938-16.382813 16.382813-16.382813 16.378906 7.335938 16.378906 16.382813zm0 0"/></g></svg>