<?xml version="1.0" encoding="iso-8859-1"?>
<!-- Generator: Adobe Illustrator 19.0.0, SVG Export Plug-In . SVG Version: 6.00 Build 0)  -->
<svg version="1.1" id="Capa_1" xmlns="http://www.w3.org/2000/svg" xmlns:xlink="http://www.w3.org/1999/xlink" x="0px" y="0px"
	 viewBox="0 0 512 512" style="enable-background:new 0 0 512 512;" xml:space="preserve">
<path style="fill:#56CC84;" d="M234.101,413.912c1.113-12.963,6.443-31.758,25.232-48.99l-18.196-46.534l-36.4,15.33
	c0,0-29.134,45.916,15.719,85.625C225.491,423.801,233.526,420.613,234.101,413.912z"/>
<path style="fill:#7EDEA5;" d="M215.65,386.043c-1.399-1.399-2.263-3.331-2.262-5.464c0.003-19.032,18.591-60.687,20.71-65.374
	c1.759-3.888,6.336-5.613,10.224-3.856c3.888,1.759,5.616,6.335,3.858,10.224c-5.379,11.898-19.337,45.692-19.339,59.009
	c0,4.267-3.46,7.725-7.727,7.725C218.979,388.306,217.048,387.441,215.65,386.043z"/>
<path style="fill:#56CC84;" d="M98.088,277.899c12.963-1.113,31.758-6.443,48.99-25.232l46.533,18.196l-15.33,36.4
	c0,0-45.916,29.134-85.625-15.719C88.199,286.509,91.387,278.474,98.088,277.899z"/>
<g>
	<path style="fill:#7EDEA5;" d="M125.958,296.35c-1.398-1.398-2.262-3.329-2.263-5.462c0-4.267,3.458-7.726,7.725-7.727
		c13.317-0.002,47.111-13.96,59.009-19.339c3.889-1.757,8.466-0.029,10.224,3.858c1.757,3.888,0.032,8.465-3.856,10.224
		c-4.687,2.119-46.343,20.708-65.374,20.71C129.288,298.614,127.355,297.749,125.958,296.35z"/>
	<path style="fill:#7EDEA5;" d="M290.659,193.718L5.721,478.656c-7.627,7.627-7.627,19.996,0,27.623
		c7.628,7.628,19.996,7.628,27.623,0l284.938-284.938L290.659,193.718z"/>
</g>
<path style="fill:#F0484A;" d="M385.341,41.251c29.619-8.459,55.346,2.464,66.706,8.704c4.22,2.318,7.68,5.777,9.997,9.997
	c6.24,11.36,17.163,37.088,8.704,66.706l-66.707-18.701L385.341,41.251z"/>
<path style="fill:#FD6064;" d="M363.721,2.293c-3.088-3.433-8.621-2.94-11.024,1.002c-4.265,6.996-11.49,15.185-23.087,24.641
	l-38.473,62.968l98.246,98.246l68.891-26.424C436.789,88.221,382.985,23.706,363.721,2.293z"/>
<path style="fill:#E33D41;" d="M509.707,148.279c-21.413-19.264-85.928-73.068-160.433-94.553l-26.424,68.891l98.246,98.246
	l62.968-38.473c9.456-11.598,17.645-18.822,24.641-23.087C512.647,156.899,513.14,151.367,509.707,148.279z"/>
<path style="fill:#56CC84;" d="M154.691,329.685c4.261,4.766,8.738,9.498,13.431,14.192c4.694,4.694,9.426,9.17,14.192,13.431
	l135.967-135.967l-27.623-27.623L154.691,329.685z"/>
<path style="fill:#F0484A;" d="M389.99,122.005C364.679,68.8,328.816,26.086,313.832,9.428c-3.081-3.425-8.62-2.965-11.015,0.969
	c-9.217,15.139-32.295,35.865-83.567,62.934c-128.6,67.894-109.429,168.537-29.274,248.693L389.99,122.005z"/>
<path style="fill:#FD6064;" d="M438.669,292.75c27.069-51.272,47.795-74.35,62.935-83.567c3.937-2.397,4.388-7.941,0.96-11.023
	c-31.553-28.383-156.48-131.571-269.173-96.312c-150.965,55.115-43.415,220.175-43.415,220.175
	C270.132,402.179,370.775,421.35,438.669,292.75z"/>
<g>
	<path style="fill:#3A444A;" d="M219.827,172.28c-3.017-3.017-3.017-7.91,0-10.927l10.849-10.849c3.017-3.017,7.909-3.017,10.927,0
		c3.018,3.017,3.017,7.91,0,10.927l-10.849,10.849C227.735,175.297,222.844,175.298,219.827,172.28z"/>
	<path style="fill:#3A444A;" d="M339.719,292.173c-3.017-3.017-3.017-7.91,0-10.927l10.849-10.849c3.017-3.017,7.909-3.017,10.927,0
		c3.017,3.017,3.017,7.91,0,10.927l-10.849,10.849C347.629,295.191,342.738,295.191,339.719,292.173z"/>
	<path style="fill:#3A444A;" d="M273.982,238.018c-7.343-7.343-11.168-17.302-10.495-27.323c0.285-4.258,3.969-7.477,8.227-7.191
		c4.258,0.286,7.478,3.97,7.191,8.226c-0.374,5.572,1.814,11.171,6.005,15.361c4.19,4.19,9.789,6.378,15.36,6.004
		c4.257-0.287,7.941,2.934,8.226,7.191c0.286,4.258-2.933,7.942-7.191,8.227C291.283,249.186,281.325,245.361,273.982,238.018z"/>
</g>
<g>
</g>
<g>
</g>
<g>
</g>
<g>
</g>
<g>
</g>
<g>
</g>
<g>
</g>
<g>
</g>
<g>
</g>
<g>
</g>
<g>
</g>
<g>
</g>
<g>
</g>
<g>
</g>
<g>
</g>
</svg>
