<svg height="512pt" viewBox="0 0 512 512.00058" width="512pt" xmlns="http://www.w3.org/2000/svg"><path d="m109.574219 109.574219c-103.078125 103.078125-115.933594 257.347656-28.714844 344.570312 87.222656 87.222657 241.492187 74.367188 344.570313-28.714843 103.078124-103.078126 115.9375-257.347657 28.714843-344.570313-87.21875-87.222656-241.488281-74.363281-344.570312 28.714844zm264.261719 264.261719c-66.824219 66.820312-155.089844 86.898437-197.144532 44.84375-42.054687-42.054688-21.976562-130.316407 44.847656-197.140626 66.824219-66.824218 155.085938-86.902343 197.140626-44.847656 42.058593 42.054688 21.976562 130.320313-44.84375 197.144532zm0 0" fill="#ffcd00"/><path d="m356.023438 477.679688c-33.726563-7.535157-60.378907-24.0625-80.980469-42.929688-39.175781 11.265625-75.554688 6.726562-98.351563-16.070312-42.054687-42.054688-21.976562-130.316407 44.847656-197.140626 66.824219-66.824218 155.085938-86.902343 197.140626-44.847656 22.796874 22.796875 27.335937 59.175782 16.070312 98.351563 18.867188 20.597656 35.394531 47.253906 42.933594 80.980469 51.859375-94.558594 45.65625-205.96875-23.539063-275.164063-87.21875-87.222656-241.488281-74.363281-344.570312 28.714844-103.078125 103.078125-115.933594 257.347656-28.714844 344.570312 69.195313 69.195313 180.609375 75.394531 275.164063 23.535157zm0 0" fill="#ffb600"/><path d="m109.574219 109.574219c-103.078125 103.078125-115.933594 257.347656-28.714844 344.570312 36.667969 36.667969 85.191406 55.648438 136.773437 57.675781-81.769531-81.769531-61.066406-173.722656-61.066406-173.722656 6.355469-37.988281 28.828125-80.414062 64.972656-116.558594 36.148438-36.148437 78.574219-58.617187 116.558594-64.972656 0 0 91.953125-20.703125 173.722656 61.066406-2.027343-51.582031-21.007812-100.105468-57.675781-136.773437-87.21875-87.222656-241.488281-74.363281-344.570312 28.714844zm0 0" fill="#ffeb99"/><path d="m282.179688 40.78125c-40.851563-40.8515625-128.003907-19.925781-194.664063 46.734375-66.660156 66.664063-87.5859375 153.816406-46.738281 194.664063 40.847656 40.847656 128.003906 19.925781 194.664062-46.738282 66.660156-66.660156 87.585938-153.8125 46.738282-194.660156zm0 0" fill="#ffde55"/><path d="m93.453125 213.421875c-34.226563-4.332031-52.320313-22.859375-61.726563-43.488281-17.824218 44.570312-16.054687 87.148437 9.046876 112.25 37.53125 37.527344 114.152343 22.914062 178.050781-31.40625-23.109375-13.621094-62.097657-29.347656-125.371094-37.355469zm0 0" fill="#ffcd00"/><path d="m230.171875 24.769531c-34.757813-34.757812-108.914063-16.953125-165.636719 39.769531-56.71875 56.71875-74.523437 130.878907-39.765625 165.636719 34.753907 34.753907 108.914063 16.949219 165.632813-39.769531 56.722656-56.722656 74.527344-130.878906 39.769531-165.636719zm0 0" fill="#abebf4"/><path d="m93.457031 213.421875c-61.054687-7.726563-70.792969-60.632813-71.402343-90.046875-20.257813 41.898438-20.753907 83.332031 2.710937 106.800781 26.65625 26.65625 76.488281 22.394531 123.851563-6.617187-15.929688-3.988282-34.210938-7.488282-55.160157-10.136719zm0 0" fill="#8ed7e8"/><path d="m63.894531 343.402344c22.011719 0 39.855469 17.84375 39.855469 39.855468 0 22.015626-17.84375 39.859376-39.855469 39.859376s-63.894531-17.84375-63.894531-39.859376c0-22.011718 41.878906-39.855468 63.894531-39.855468zm0 0" fill="#ff737d"/><path d="m343.402344 63.894531c0 22.011719 17.84375 39.855469 39.859375 39.855469 22.011719 0 39.855469-17.84375 39.855469-39.855469s-17.84375-63.894531-39.859376-63.894531c-22.011718 0-39.855468 41.878906-39.855468 63.894531zm0 0" fill="#ff737d"/><g fill="#57565c"><path d="m177.085938 87.042969c-3.015626 3.015625-7.910157 3.015625-10.925782 0l-9.070312-9.070313c-3.019532-3.019531-3.019532-7.910156 0-10.929687 3.015625-3.015625 7.910156-3.015625 10.925781 0l9.070313 9.070312c3.019531 3.019531 3.019531 7.910157 0 10.929688zm0 0"/><path d="m87.042969 177.085938c-3.019531 3.015624-7.910157 3.015624-10.929688 0l-9.070312-9.070313c-3.015625-3.015625-3.015625-7.90625 0-10.925781 3.019531-3.019532 7.910156-3.019532 10.929687 0l9.070313 9.070312c3.015625 3.015625 3.015625 7.910156 0 10.925782zm0 0"/><path d="m124.875 117.410156c.574219 3.023438-.996094 5.023438-1.71875 5.746094s-2.734375 2.339844-5.746094 1.71875c-4.179687-.863281-8.265625 1.820312-9.132812 6-.863282 4.175781 1.820312 8.265625 6 9.128906 7.203125 1.492188 14.605468-.722656 19.804687-5.921875s7.414063-12.601562 5.921875-19.804687c-.863281-4.179688-4.953125-6.863282-9.132812-6-1.53125.316406-7.191406 2.832031-5.996094 9.132812zm0 0"/></g></svg>