<svg height="511pt" viewBox="0 -104 511.99876 511" width="511pt" xmlns="http://www.w3.org/2000/svg"><path d="m439.09375 113.699219c-42.859375 10.304687-52.878906 67.105469-18.691406 88.039062 29.917968 18.316407 66.089844-5.421875 58.316406-37.734375-5.933594-24.679687-37.207031-28.839844-45.316406-15.59375-4.195313 6.855469-2.042969 15.816406 4.8125 20.011719 7.984375 4.886719 18.691406 1.105469 21.515625-8.195313 9.453125 8.824219 4.746093 28.121094-10.765625 31.851563-7.089844 1.707031-14.425782.546875-20.652344-3.261719-22.746094-13.933594-15.371094-53.242187 14.324219-60.382812 15.226562-3.660156 30.175781.089844 41.007812 10.289062 34.023438 32.027344-2.839843 88.769532-47.351562 80.167969-12.382813-2.394531-23.664063-9.574219-34.011719-16.976563-92.726562-66.34375-193.292969-71.023437-292.5625 0-10.34375 7.402344-21.625 14.582032-34.011719 16.976563-29.695312 5.734375-55.585937-17.832031-59.863281-41.933594-5.355469-30.175781 21.457031-56.234375 53.523438-48.523437 29.777343 7.160156 37.015624 46.480468 14.320312 60.382812-6.222656 3.808594-13.558594 4.964844-20.652344 3.261719-15.5-3.726563-20.15625-22.988281-10.816406-31.796875 2.792969 9.277344 13.496094 13.140625 21.523438 8.226562 6.855468-4.199218 9.011718-13.160156 4.8125-20.015624-8.421876-13.753907-39.449219-8.710938-45.273438 15.511718-2.214844 9.21875-.710938 18.746094 4.238281 26.832032 17.410157 28.429687 64.605469 20.335937 73.199219-15.390626 6.597656-27.445312-10.363281-55.144531-37.808594-61.746093-42.605468-10.246094-79.246094 25-71.988281 65.90625 5.796875 32.65625 39.746094 61.5 77.660156 54.160156 27.546875-5.324219 37.492188-21.878906 77-42.277344-46.171875 53.917969-.609375 124.992188 58.09375 110.875 42.855469-10.304687 52.875-67.105469 18.691407-88.039062-30.371094-18.597657-65.925782 6.101562-58.320313 37.734375 3.703125 15.40625 18.542969 24.898437 33.609375 22.566406 14.117188-1.121094 18.359375-19.625 6.460938-26.910156-7.859376-4.8125-18.367188-1.222656-21.394532 7.796875-1.921875-1.90625-3.292968-4.300781-3.941406-6.996094-4.53125-18.839844 17.027344-32.6875 35.671875-21.269531 22.761719 13.9375 15.34375 53.25-14.320313 60.382812-25.226562 6.066406-50.554687-9.4375-56.621093-34.671875-10.375-43.148437 33.15625-86.34375 102.488281-87.332031 65.472656.933594 113.523438 41.429688 102.488281 87.332031-6.066406 25.230469-31.390625 40.734375-56.621093 34.671875-29.78125-7.164062-37.023438-46.484375-14.324219-60.382812 10.6875-6.542969 26.25-5.53125 33.246093 5.890625 4.25 6.941406 4.222657 16.671875-1.503906 22.367187-3.007812-9.035156-13.523437-12.65625-21.402344-7.832031-6.855468 4.199219-9.011718 13.160156-4.816406 20.011719 8.445313 13.792968 39.132813 8.300781 44.882813-15.628906 7.753906-32.246094-28.355469-56.078126-58.316407-37.734376-34.285156 20.996094-24.023437 77.769532 18.691407 88.039063 58.597656 14.09375 104.320312-56.890625 58.089843-110.875 38.03125 19.636719 49.96875 37.054687 77 42.28125 38.59375 7.464844 72.007813-22.3125 77.660157-54.160156 7.269531-40.957031-29.441407-76.128907-71.980469-65.90625zm0 0" fill="#a6e0ec"/><path d="m268.40625 124.835938c-3.289062 3.542968-7.15625 6.855468-11.648438 9.882812 0 0-67.851562-36.171875-4.875-132.273438 1.707032-2.605468 5.621094-2.5429682 7.589844-.117187 2.1875 2.675781 5.1875 7.289063 8.359375 13.257813 13.714844 25.734374 30.769531 76.894531.574219 109.25zm0 0" fill="#fb5858"/><path d="m268.40625 124.835938c-14.984375-15.277344-34.34375-49.394532-.574219-109.25 13.714844 25.734374 30.769531 76.894531.574219 109.25zm0 0" fill="#fc7979"/><path d="m259.414062 118.3125c-.183593 5.25-1.023437 10.726562-2.65625 16.40625 0 0-74.316406 15.132812-87.835937-98.957031-.375-3.113281 2.664063-5.5625 5.738281-4.984375 4.816406.921875 13.269532 3.78125 23.046875 8.511718 26.636719 12.914063 63.027344 39.730469 61.707031 79.023438zm0 0" fill="#fd9a9a"/><path d="m259.414062 118.3125c-20.875-4.695312-50.046874-21.84375-61.707031-79.023438 26.636719 12.914063 63.027344 39.730469 61.707031 79.023438zm0 0" fill="#fdbcbc"/><path d="m343.078125 35.761719c-.792969 6.675781-1.789063 12.910156-2.976563 18.734375-12.539062 61.847656-45.542968 76.992187-66.496093 80.140625-10.773438 1.632812-18.363281.082031-18.363281.082031-18.339844-63.914062 62.414062-100.183594 82.09375-103.941406 3.078124-.578125 6.117187 1.871094 5.742187 4.984375zm0 0" fill="#fd9a9a"/><path d="m340.101562 54.496094c-12.539062 61.847656-45.542968 76.992187-66.496093 80.140625-.652344-41.085938 39.90625-68.359375 66.496093-80.140625zm0 0" fill="#fdbcbc"/></svg>