<svg height="511pt" viewBox="0 -117 511.99885 511" width="511pt" xmlns="http://www.w3.org/2000/svg"><path d="m155.714844 243.523438c-1.378906 8.417968-4.378906 17.945312-9.480469 28.734374-.230469.496094-.507813.960938-.800781 1.40625-.597656.894532-1.316406 1.675782-2.128906 2.3125-3.234376 2.625-7.867188 3.234376-11.808594 1.144532-.386719-.203125-.78125-.414063-1.175782-.628906-11.355468-6.152344-28.457031-17.6875-36.570312-34.578126-2.269531-4.695312-3.832031-9.804687-4.378906-15.328124-1.09375-10.949219 1.785156-23.53125 11.121094-37.722657 1.601562-2.464843 3.417968-4.96875 5.433593-7.535156 0 0 1.9375.265625 5.070313 1.015625 1.085937.261719 2.320312.585938 3.660156.972656 13.835938 4.042969 39.488281 15.46875 41.808594 45.011719.363281 4.601563.160156 9.660156-.75 15.195313zm0 0" fill="#9bcf1b"/><path d="m155.714844 243.523438c-1.378906 8.417968-4.378906 17.945312-9.480469 28.734374-.230469.496094-.507813.960938-.800781 1.40625-.597656.894532-1.316406 1.675782-2.128906 2.3125-7.574219-7.398437-14.914063-16.839843-19.445313-28.304687-2.269531-5.699219-9.679687-17.5-10.226563-24.210937-.761718-9.246094-3.925781-25.980469-2.636718-41.117188 1.085937.261719 2.320312.585938 3.660156.972656 13.835938 4.042969 39.488281 15.46875 41.808594 45.011719.363281 4.601563.160156 9.660156-.75 15.195313zm0 0" fill="#b9e746"/><path d="m155.714844 243.523438c-4.652344-.199219-11.265625-.472657-20.609375-.851563l10.328125 30.992187c-3.011719 4.472657-9.011719 6.0625-13.9375 3.457032-.386719-.203125-.78125-.414063-1.175782-.628906-3.105468-9.265626-8.164062-24.359376-16.222656-48.386719-8.757812 5.851562-15.339844 10.351562-20.347656 13.808593-2.269531-4.695312-3.832031-9.804687-4.378906-15.328124l19.566406-13.363282-8.445312-24.359375-1.691407-4.867187c-3.476562-8.6875-9.398437-18.207032-14.773437-23.742188-2.917969-3.011718-2.847656-7.828125.164062-10.757812 3.011719-2.921875 7.824219-2.847656 10.746094.160156 6.773438 6.976562 13.859375 18.3125 18.054688 28.875.050781.132812-.160157-.496094 1.664062 4.785156 1.925781 5.535156 6.113281 17.597656 15.246094 43.925782l26.5625 1.085937c.363281 4.601563.160156 9.660156-.75 15.195313zm0 0" fill="#84b017"/><path d="m356.441406 243.523438c1.375 8.417968 4.378906 17.945312 9.476563 28.734374.234375.496094.507812.960938.800781 1.40625.597656.894532 1.320312 1.675782 2.128906 2.3125 3.234375 2.625 7.867188 3.234376 11.8125 1.144532.382813-.203125.78125-.414063 1.175782-.628906 11.355468-6.152344 28.457031-17.6875 36.566406-34.578126 2.269531-4.695312 3.832031-9.804687 4.378906-15.328124 1.097656-10.949219-1.785156-23.53125-11.121094-37.722657-1.601562-2.464843-3.414062-4.96875-5.433594-7.535156 0 0-1.9375.265625-5.070312 1.015625-1.082031.261719-2.320312.585938-3.65625.972656-13.839844 4.042969-39.488281 15.46875-41.8125 45.011719-.363281 4.601563-.160156 9.660156.753906 15.195313zm0 0" fill="#9bcf1b"/><path d="m356.441406 243.523438c1.375 8.417968 4.378906 17.945312 9.476563 28.734374.234375.496094.507812.960938.800781 1.40625.597656.894532 1.320312 1.675782 2.128906 2.3125 7.574219-7.398437 14.914063-16.839843 19.445313-28.304687 2.269531-5.699219 9.683593-17.5 10.230469-24.210937.757812-9.246094 3.921874-25.980469 2.632812-41.117188-1.082031.261719-2.320312.585938-3.65625.972656-13.839844 4.042969-39.488281 15.46875-41.8125 45.011719-.363281 4.601563-.160156 9.660156.753906 15.195313zm0 0" fill="#b9e746"/><path d="m356.441406 243.523438c4.652344-.199219 11.261719-.472657 20.609375-.851563l-10.332031 30.992187c3.011719 4.472657 9.011719 6.0625 13.941406 3.457032.382813-.203125.78125-.414063 1.175782-.628906 3.101562-9.265626 8.160156-24.359376 16.21875-48.386719 8.761718 5.851562 15.339843 10.351562 20.347656 13.808593 2.269531-4.695312 3.832031-9.804687 4.378906-15.328124l-19.566406-13.363282 8.445312-24.359375 1.695313-4.867187c3.476562-8.6875 9.394531-18.207032 14.769531-23.742188 2.917969-3.011718 2.847656-7.828125-.164062-10.757812-3.007813-2.921875-7.824219-2.847656-10.746094.160156-6.769532 6.976562-13.855469 18.3125-18.054688 28.875-.050781.132812.164063-.496094-1.660156 4.785156-1.929688 5.535156-6.113281 17.597656-15.25 43.925782l-26.5625 1.085937c-.363281 4.601563-.160156 9.660156.753906 15.195313zm0 0" fill="#84b017"/><path d="m84.355469 100.636719h343.988281v52.085937h-343.988281zm0 0" fill="#fb5858"/><path d="m508.988281 172.4375c-3.347656-2.535156-8.117187-1.882812-10.652343 1.464844-19.675782 25.953125-61.386719 13.292968-63.042969-19.382813 1.160156-4.796875-2.476563-9.398437-7.390625-9.398437h-343.546875c-4.203125 0-7.605469 3.402344-7.605469 7.601562 0 33.484375-42.785156 47.960938-63.085938 21.179688-2.539062-3.347656-7.304687-4.003906-10.652343-1.464844-3.347657 2.535156-4.003907 7.304688-1.464844 10.652344 26.910156 35.5 83.1875 20.910156 89.839844-22.761719h329.226562c6.652344 43.691406 62.9375 58.246094 89.839844 22.761719 2.539063-3.34375 1.882813-8.117188-1.464844-10.652344zm0 0" fill="#fc7979"/><path d="m426.0625 79.816406s1.605469 7.207032.265625 17.210938c-2.273437 16.96875-12.976563 42-54.289063 53.601562-1.984374.570313-4.042968 1.085938-6.167968 1.578125-7.796875 1.8125-14.421875-4.664062-12.78125-12.484375 4.933594-23.65625 21.0625-65.980468 72.972656-59.90625zm0 0" fill="#44bfd7"/><path d="m503.988281 13.621094c-.429687 2.039062-.945312 4.226562-1.554687 6.507812-5.597656 20.957032-19.582032 50-54.269532 53.605469-5.234374.554687-10.925781.523437-17.148437-.207031 0 0-12.34375-55.585938 60.167969-72.390625 7.808594-1.800781 14.433594 4.65625 12.804687 12.484375zm0 0" fill="#44bfd7"/><path d="m426.328125 97.027344c-2.273437 16.96875-12.976563 42-54.289063 53.601562 5.609376-20.921875 19.59375-49.988281 54.289063-53.601562zm0 0" fill="#60c8dd"/><path d="m502.433594 20.128906c-5.597656 20.957032-19.582032 50-54.269532 53.605469 2.273438-16.96875 12.976563-42 54.269532-53.605469zm0 0" fill="#60c8dd"/><path d="m425.601562 57.046875c.542969 5.222656.523438 10.925781-.207031 17.148437 0 0-55.585937 12.34375-72.402343-60.175781-1.800782-7.808593 4.664062-14.425781 12.496093-12.796875 2.039063.429688 4.214844.933594 6.5 1.542969 20.933594 5.601563 49.996094 19.585937 53.613281 54.28125zm0 0" fill="#44bfd7"/><path d="m502.488281 133.160156c.566407 1.984375 1.082031 4.042969 1.574219 6.167969 1.8125 7.796875-4.652344 14.433594-12.484375 12.804687-23.65625-4.953124-65.976563-21.085937-59.898437-72.980468 0 0 7.207031-1.609375 17.214843-.269532 16.96875 2.273438 42 12.976563 53.59375 54.277344zm0 0" fill="#44bfd7"/><path d="m425.601562 57.046875c-16.980468-2.265625-42.023437-12.980469-53.617187-54.28125 20.9375 5.601563 50 19.585937 53.617187 54.28125zm0 0" fill="#60c8dd"/><path d="m502.488281 133.160156c-20.949219-5.609375-49.988281-19.59375-53.59375-54.277344 16.96875 2.273438 42 12.976563 53.59375 54.277344zm0 0" fill="#60c8dd"/><path d="m480.449219 119.640625-41.636719-41.636719 40.980469-40.976562c2.839843-2.839844 2.839843-7.445313 0-10.285156-2.839844-2.839844-7.445313-2.839844-10.285157 0l-41.636718 41.636718-40.976563-40.980468c-2.839843-2.839844-7.445312-2.839844-10.285156 0-2.84375 2.839843-2.84375 7.445312 0 10.285156l41.632813 41.636718-40.976563 40.976563c-2.839844 2.839844-2.839844 7.445313 0 10.285156 1.421875 1.421875 3.28125 2.128907 5.140625 2.128907 1.863281 0 3.722656-.710938 5.144531-2.128907l41.632813-41.632812 40.980468 40.976562c1.417969 1.421875 3.28125 2.128907 5.140626 2.128907 1.863281 0 3.722656-.710938 5.140624-2.128907 2.84375-2.84375 2.84375-7.445312.003907-10.285156zm0 0" fill="#def4f8"/><path d="m449.859375 55.351562c7.894531 7.894532 10.488281 19.070313 7.808594 29.128907-1.320313 4.945312-3.925781 9.628906-7.808594 13.511719-11.777344 11.777343-30.875 11.789062-42.652344.011718-11.777343-11.777344-11.777343-30.886718 0-42.664062 3.882813-3.882813 8.570313-6.488282 13.523438-7.796875 10.050781-2.691407 21.234375-.085938 29.128906 7.808593zm0 0" fill="#269ab1"/><path d="m449.859375 55.351562c7.894531 7.894532 10.488281 19.070313 7.808594 29.128907-10.058594 2.679687-21.234375.085937-29.128907-7.808594-7.894531-7.890625-10.5-19.078125-7.808593-29.128906 10.050781-2.691407 21.234375-.085938 29.128906 7.808593zm0 0" fill="#2cb3cd"/><path d="m81 79.480469s1.609375 7.207031.269531 17.214843c-2.273437 16.96875-12.976562 42-54.289062 53.601563-1.984375.570313-4.042969 1.082031-6.167969 1.578125-7.796875 1.8125-14.425781-4.667969-12.785156-12.484375 4.933594-23.660156 21.066406-65.980469 72.972656-59.910156zm0 0" fill="#44bfd7"/><path d="m158.925781 13.289062c-.425781 2.035157-.941406 4.226563-1.554687 6.507813-5.597656 20.957031-19.582032 50-54.265625 53.601563-5.234375.558593-10.929688.527343-17.152344-.203126 0 0-12.34375-55.585937 60.167969-72.390624 7.808594-1.800782 14.4375 4.652343 12.804687 12.484374zm0 0" fill="#44bfd7"/><path d="m81.269531 96.695312c-2.273437 16.96875-12.980469 42-54.292969 53.601563 5.609376-20.921875 19.597657-49.988281 54.292969-53.601563zm0 0" fill="#60c8dd"/><path d="m157.371094 19.800781c-5.597656 20.953125-19.582032 49.996094-54.265625 53.601563 2.273437-16.96875 12.976562-42 54.265625-53.601563zm0 0" fill="#60c8dd"/><path d="m80.539062 56.714844c.546876 5.222656.523438 10.925781-.203124 17.148437 0 0-55.585938 12.34375-72.402344-60.175781-1.804688-7.808594 4.664062-14.425781 12.492187-12.796875 2.039063.429687 4.214844.933594 6.5 1.542969 20.933594 5.597656 50 19.585937 53.613281 54.28125zm0 0" fill="#44bfd7"/><path d="m157.425781 132.828125c.570313 1.984375 1.082031 4.042969 1.574219 6.167969 1.816406 7.796875-4.652344 14.433594-12.480469 12.804687-23.660156-4.953125-65.980469-21.085937-59.898437-72.984375 0 0 7.207031-1.605468 17.210937-.265625 16.96875 2.273438 42 12.976563 53.59375 54.277344zm0 0" fill="#44bfd7"/><path d="m80.539062 56.714844c-16.976562-2.265625-42.019531-12.980469-53.613281-54.28125 20.933594 5.597656 50 19.585937 53.613281 54.28125zm0 0" fill="#60c8dd"/><path d="m157.425781 132.828125c-20.945312-5.609375-49.988281-19.59375-53.59375-54.277344 16.96875 2.273438 42 12.976563 53.59375 54.277344zm0 0" fill="#60c8dd"/><path d="m135.386719 119.308594-41.632813-41.636719 40.976563-40.976563c2.839843-2.839843 2.839843-7.445312 0-10.285156-2.839844-2.84375-7.445313-2.84375-10.285157 0l-41.636718 41.632813-40.976563-40.976563c-2.839843-2.839844-7.445312-2.839844-10.285156 0s-2.839844 7.445313 0 10.285156l41.636719 41.636719-40.976563 40.976563c-2.84375 2.839844-2.84375 7.445312 0 10.285156 1.417969 1.421875 3.277344 2.128906 5.140625 2.128906 1.859375 0 3.722656-.710937 5.140625-2.128906l41.636719-41.632812 40.976562 40.976562c1.421876 1.417969 3.28125 2.128906 5.144532 2.128906 1.859375 0 3.722656-.710937 5.140625-2.128906 2.84375-2.84375 2.84375-7.445312 0-10.285156zm0 0" fill="#def4f8"/><path d="m104.796875 55.019531c7.894531 7.894531 10.488281 19.066407 7.808594 29.128907-1.316407 4.945312-3.925781 9.628906-7.808594 13.511718-11.773437 11.777344-30.875 11.785156-42.652344.011719-11.773437-11.777344-11.773437-30.886719 0-42.664063 3.882813-3.882812 8.570313-6.488281 13.527344-7.796874 10.046875-2.691407 21.234375-.085938 29.125 7.808593zm0 0" fill="#269ab1"/><path d="m104.796875 55.019531c7.894531 7.894531 10.488281 19.066407 7.808594 29.128907-10.058594 2.679687-21.234375.085937-29.128907-7.808594-7.894531-7.894532-10.5-19.078125-7.804687-29.128906 10.046875-2.691407 21.234375-.085938 29.125 7.808593zm0 0" fill="#2cb3cd"/></svg>