<svg height="511pt" viewBox="0 -53 511.99944 511" width="511pt" xmlns="http://www.w3.org/2000/svg"><path d="m162.304688 5.460938c-6.492188-2.429688-14.425782-4.167969-24.097657-4.933594-.445312-.039063-.882812-.035156-1.316406-.007813-.871094.0625-1.714844.253907-2.492187.566407-3.160157 1.21875-5.460938 4.242187-5.585938 7.867187-.011719.355469-.023438.71875-.03125 1.082031-.25 10.5.96875 27.226563 9.601562 39.777344 2.390626 3.5 5.363282 6.667969 9.039063 9.285156 7.277344 5.203125 17.316406 8.257813 31.101563 7.414063 2.386718-.132813 4.886718-.402344 7.511718-.785157 0 0 .597656-1.472656 1.332032-3.984374.253906-.875.527343-1.875.796874-2.976563 2.742188-11.394531 5.058594-34.105469-14.839843-47.691406-3.097657-2.117188-6.746094-4.019531-11.019531-5.613281zm0 0" fill="#9bcf1b"/><path d="m162.304688 5.460938c-6.492188-2.429688-14.425782-4.167969-24.097657-4.933594-.445312-.039063-.882812-.035156-1.316406-.007813-.871094.0625-1.714844.253907-2.492187.566407 2.15625 8.335937 5.84375 17.328124 12.097656 25.160156 3.101562 3.90625 8.425781 13.90625 12.9375 17.007812 6.214844 4.273438 16.738281 13.273438 27.9375 18.488282.25-.871094.523437-1.875.792968-2.976563 2.742188-11.394531 5.058594-34.105469-14.839843-47.691406-3.097657-2.117188-6.746094-4.019531-11.019531-5.613281zm0 0" fill="#b9e746"/><path d="m162.304688 5.460938c-1.738282 3.363281-4.21875 8.136718-7.734376 14.878906l-17.679687-19.820313c-4.371094.316407-7.921875 3.90625-8.078125 8.433594-.011719.355469-.023438.71875-.03125 1.082031 5.28125 5.9375 13.882812 15.609375 27.566406 31.011719-7.667968 3.8125-13.503906 6.632813-17.964844 8.765625 2.390626 3.5 5.363282 6.667969 9.039063 9.289062l17.335937-8.398437 13.765626 15.808594 2.75 3.164062c4.71875 5.964844 9.039062 13.988281 10.769531 20.019531.945312 3.273438 4.367187 5.171876 7.652343 4.234376 3.277344-.941407 5.175782-4.367188 4.230469-7.644532-2.179687-7.597656-7.308593-17.179687-13.058593-24.410156-.074219-.089844.285156.316406-2.703126-3.109375-3.125-3.59375-9.941406-11.425781-24.816406-28.515625l9.976563-19.171875c-3.097657-2.121094-6.746094-4.023437-11.019531-5.617187zm0 0" fill="#84b017"/><path d="m349.058594 5.460938c6.492187-2.429688 14.425781-4.167969 24.097656-4.933594.445312-.039063.882812-.035156 1.316406-.007813.871094.0625 1.714844.253907 2.492188.566407 3.160156 1.21875 5.460937 4.242187 5.585937 7.867187.011719.355469.019531.71875.03125 1.082031.25 10.5-.96875 27.226563-9.601562 39.777344-2.390625 3.5-5.363281 6.667969-9.039063 9.285156-7.28125 5.203125-17.316406 8.257813-31.101562 7.414063-2.386719-.132813-4.886719-.402344-7.511719-.785157 0 0-.597656-1.472656-1.335937-3.984374-.25-.875-.523438-1.875-.792969-2.976563-2.742188-11.394531-5.058594-34.105469 14.839843-47.691406 3.097657-2.117188 6.746094-4.019531 11.019532-5.613281zm0 0" fill="#9bcf1b"/><path d="m349.058594 5.460938c6.492187-2.429688 14.425781-4.167969 24.097656-4.933594.445312-.039063.882812-.035156 1.316406-.007813.871094.0625 1.714844.253907 2.492188.566407-2.15625 8.335937-5.84375 17.328124-12.101563 25.160156-3.097656 3.90625-8.425781 13.90625-12.933593 17.007812-6.214844 4.273438-16.738282 13.273438-27.9375 18.488282-.25-.871094-.523438-1.875-.792969-2.976563-2.742188-11.394531-5.058594-34.105469 14.839843-47.691406 3.097657-2.117188 6.746094-4.019531 11.019532-5.613281zm0 0" fill="#b9e746"/><path d="m349.058594 5.460938c1.738281 3.363281 4.21875 8.136718 7.734375 14.878906l17.679687-19.820313c4.371094.316407 7.921875 3.90625 8.078125 8.433594.011719.355469.019531.71875.03125 1.082031-5.28125 5.9375-13.882812 15.609375-27.566406 31.011719 7.667969 3.8125 13.503906 6.632813 17.964844 8.765625-2.390625 3.5-5.363281 6.667969-9.039063 9.289062l-17.335937-8.398437-13.765625 15.808594-2.746094 3.164062c-4.722656 5.964844-9.042969 13.988281-10.773438 20.019531-.941406 3.273438-4.367187 5.171876-7.652343 4.234376-3.277344-.941407-5.171875-4.367188-4.230469-7.644532 2.179688-7.597656 7.308594-17.179687 13.058594-24.410156.074218-.089844-.28125.316406 2.703125-3.109375 3.125-3.59375 9.941406-11.425781 24.816406-28.515625l-9.976563-19.171875c3.097657-2.121094 6.746094-4.023437 11.019532-5.617187zm0 0" fill="#84b017"/><path d="m443.179688 154.425781c.269531 6.871094-.566407 14.882813-2.855469 24.226563-.105469.429687-.246094.84375-.40625 1.242187-.328125.800781-.773438 1.535157-1.308594 2.171875-2.132813 2.59375-5.695313 3.824219-9.148437 2.808594-.335938-.097656-.679688-.203125-1.027344-.308594-9.964844-3.027344-25.335938-9.386718-34.46875-21.421875-2.550782-3.34375-4.609375-7.128906-5.933594-11.40625-2.628906-8.472656-2.382812-18.878906 2.707031-31.597656.867188-2.203125 1.894531-4.472656 3.078125-6.824219 0 0 1.570313-.105468 4.167969-.015625.898437.03125 1.929687.089844 3.046875.175781 11.585938.964844 33.695312 5.855469 40.292969 28.820313 1.027343 3.578125 1.683593 7.605469 1.855469 12.128906zm0 0" fill="#9bcf1b"/><path d="m443.179688 154.425781c.269531 6.871094-.566407 14.882813-2.855469 24.226563-.105469.429687-.246094.84375-.40625 1.242187-.328125.800781-.773438 1.535157-1.308594 2.171875-7.175781-4.628906-14.496094-10.902344-19.925781-19.230468-2.714844-4.132813-10.472656-12.261719-11.988282-17.476563-2.089843-7.183594-7.289062-19.894531-8.710937-32.0625.898437.035156 1.925781.089844 3.046875.179687 11.585938.964844 33.691406 5.855469 40.289062 28.820313 1.03125 3.578125 1.6875 7.605469 1.859376 12.128906zm0 0" fill="#b9e746"/><path d="m443.179688 154.425781c-3.707032.589844-8.976563 1.4375-16.421876 2.648438l13.160157 22.820312c-1.65625 4.019531-6.144531 6.242188-10.457031 4.980469-.335938-.097656-.683594-.203125-1.027344-.308594-3.945313-6.820312-10.378906-17.929687-20.621094-35.613281-5.976562 6.035156-10.449219 10.652344-13.847656 14.191406-2.554688-3.34375-4.609375-7.128906-5.933594-11.40625l13.304688-13.710937-10.601563-17.886719-2.121094-3.570313c-4.148437-6.300781-10.363281-12.871093-15.5-16.375-2.792969-1.910156-3.511719-5.726562-1.605469-8.527343 1.90625-2.789063 5.722657-3.511719 8.515626-1.601563 6.476562 4.417969 13.902343 12.230469 18.921874 19.898438.0625.097656-.207031-.367188 2.085938 3.511718 2.414062 4.0625 7.667969 12.921876 19.128906 32.25l21.160156-3.425781c1.03125 3.574219 1.6875 7.601563 1.859376 12.125zm0 0" fill="#84b017"/><path d="m68.996094 154.425781c-.265625 6.871094.566406 14.882813 2.855468 24.226563.105469.429687.246094.84375.40625 1.242187.328126.800781.773438 1.535157 1.308594 2.171875 2.132813 2.59375 5.695313 3.824219 9.148438 2.808594.335937-.097656.683594-.203125 1.027344-.308594 9.964843-3.027344 25.335937-9.386718 34.46875-21.421875 2.550781-3.34375 4.609374-7.128906 5.933593-11.40625 2.628907-8.472656 2.382813-18.878906-2.703125-31.597656-.871094-2.203125-1.898437-4.472656-3.078125-6.824219 0 0-1.574219-.105468-4.171875-.015625-.898437.03125-1.929687.089844-3.046875.175781-11.585937.964844-33.691406 5.855469-40.289062 28.820313-1.03125 3.578125-1.6875 7.605469-1.859375 12.128906zm0 0" fill="#9bcf1b"/><path d="m68.996094 154.425781c-.265625 6.871094.566406 14.882813 2.855468 24.226563.105469.429687.246094.84375.40625 1.242187.328126.800781.773438 1.535157 1.308594 2.171875 7.179688-4.628906 14.5-10.902344 19.929688-19.230468 2.710937-4.132813 10.46875-12.261719 11.984375-17.476563 2.09375-7.183594 7.292969-19.894531 8.714843-32.0625-.902343.035156-1.929687.089844-3.050781.179687-11.582031.964844-33.691406 5.855469-40.289062 28.820313-1.03125 3.578125-1.6875 7.605469-1.859375 12.128906zm0 0" fill="#b9e746"/><path d="m68.996094 154.425781c3.710937.589844 8.976562 1.4375 16.421875 2.648438l-13.160157 22.820312c1.65625 4.019531 6.144532 6.242188 10.457032 4.980469.335937-.097656.683594-.203125 1.03125-.308594 3.945312-6.820312 10.375-17.929687 20.617187-35.613281 5.976563 6.035156 10.449219 10.652344 13.851563 14.191406 2.550781-3.34375 4.605468-7.128906 5.929687-11.40625l-13.304687-13.710937 10.601562-17.886719 2.121094-3.570313c4.152344-6.300781 10.363281-12.871093 15.5-16.375 2.792969-1.910156 3.511719-5.726562 1.605469-8.527343-1.90625-2.789063-5.722657-3.511719-8.515625-1.601563-6.476563 4.417969-13.902344 12.230469-18.921875 19.898438-.0625.097656.207031-.367188-2.085938 3.511718-2.414062 4.0625-7.667969 12.921876-19.128906 32.25l-21.160156-3.425781c-1.03125 3.574219-1.6875 7.601563-1.859375 12.125zm0 0" fill="#84b017"/><path d="m349.871094 401.003906c6.492187 2.429688 14.425781 4.167969 24.097656 4.9375.445312.035156.882812.03125 1.316406.003906.871094-.0625 1.714844-.253906 2.492188-.566406 3.160156-1.21875 5.464844-4.242187 5.585937-7.867187.011719-.351563.023438-.71875.03125-1.082031.253907-10.5-.96875-27.226563-9.601562-39.777344-2.390625-3.5-5.363281-6.664063-9.039063-9.285156-7.277344-5.199219-17.316406-8.257813-31.101562-7.414063-2.386719.132813-4.886719.402344-7.511719.785156 0 0-.59375 1.472657-1.332031 3.988281-.253906.871094-.523438 1.875-.792969 2.972657-2.746094 11.398437-5.058594 34.105469 14.835937 47.691406 3.097657 2.117187 6.746094 4.019531 11.019532 5.613281zm0 0" fill="#9bcf1b"/><path d="m349.871094 401.003906c6.492187 2.429688 14.425781 4.167969 24.097656 4.9375.445312.035156.882812.03125 1.316406.003906.871094-.0625 1.714844-.253906 2.492188-.566406-2.15625-8.335937-5.84375-17.328125-12.097656-25.160156-3.101563-3.90625-8.425782-13.90625-12.9375-17.007812-6.214844-4.273438-16.738282-13.273438-27.933594-18.488282-.253906.875-.527344 1.875-.796875 2.976563-2.742188 11.394531-5.058594 34.105469 14.839843 47.691406 3.097657 2.117187 6.746094 4.019531 11.019532 5.613281zm0 0" fill="#b9e746"/><path d="m349.871094 401.003906c1.738281-3.363281 4.21875-8.132812 7.734375-14.878906l17.679687 19.820312c4.371094-.316406 7.921875-3.90625 8.078125-8.433593.011719-.351563.023438-.71875.03125-1.082031-5.28125-5.9375-13.878906-15.609376-27.566406-31.011719 7.667969-3.808594 13.503906-6.628907 17.964844-8.765625-2.390625-3.5-5.363281-6.664063-9.039063-9.285156l-17.335937 8.394531-13.765625-15.808594-2.746094-3.160156c-4.722656-5.964844-9.042969-13.992188-10.773438-20.019531-.941406-3.277344-4.367187-5.175782-7.652343-4.234376-3.277344.941407-5.171875 4.367188-4.230469 7.640626 2.179688 7.597656 7.308594 17.179687 13.0625 24.410156.070312.089844-.285156-.3125 2.703125 3.109375 3.121094 3.597656 9.9375 11.429687 24.8125 28.519531l-9.976563 19.171875c3.097657 2.117187 6.746094 4.019531 11.019532 5.613281zm0 0" fill="#84b017"/><path d="m163.117188 401.003906c-6.492188 2.429688-14.425782 4.167969-24.097657 4.9375-.445312.035156-.882812.03125-1.316406.003906-.871094-.0625-1.710937-.253906-2.492187-.566406-3.160157-1.21875-5.460938-4.242187-5.582032-7.867187-.015625-.351563-.023437-.71875-.035156-1.082031-.25-10.5.96875-27.226563 9.601562-39.777344 2.390626-3.5 5.363282-6.664063 9.039063-9.285156 7.28125-5.199219 17.316406-8.257813 31.101563-7.414063 2.386718.132813 4.886718.402344 7.511718.785156 0 0 .597656 1.472657 1.335938 3.988281.25.871094.523437 1.875.792968 2.972657 2.742188 11.398437 5.058594 34.105469-14.839843 47.691406-3.097657 2.117187-6.746094 4.019531-11.019531 5.613281zm0 0" fill="#9bcf1b"/><path d="m163.117188 401.003906c-6.492188 2.429688-14.425782 4.167969-24.097657 4.9375-.445312.035156-.882812.03125-1.316406.003906-.871094-.0625-1.710937-.253906-2.492187-.566406 2.15625-8.335937 5.847656-17.328125 12.101562-25.160156 3.097656-3.90625 8.425781-13.90625 12.9375-17.007812 6.210938-4.273438 16.738281-13.273438 27.933594-18.488282.253906.875.523437 1.875.792968 2.976563 2.746094 11.394531 5.058594 34.105469-14.835937 47.691406-3.101563 2.117187-6.75 4.019531-11.023437 5.613281zm0 0" fill="#b9e746"/><path d="m163.117188 401.003906c-1.738282-3.363281-4.21875-8.132812-7.734376-14.878906l-17.679687 19.820312c-4.371094-.316406-7.921875-3.90625-8.074219-8.433593-.015625-.351563-.023437-.71875-.035156-1.082031 5.28125-5.9375 13.882812-15.609376 27.566406-31.011719-7.667968-3.808594-13.5-6.628907-17.964844-8.765625 2.390626-3.5 5.363282-6.664063 9.039063-9.285156l17.335937 8.394531 13.765626-15.808594 2.75-3.160156c4.71875-5.964844 9.039062-13.992188 10.769531-20.019531.945312-3.277344 4.371093-5.175782 7.652343-4.234376 3.277344.941407 5.175782 4.367188 4.234376 7.640626-2.179688 7.597656-7.308594 17.179687-13.0625 24.410156-.070313.089844.285156-.3125-2.703126 3.109375-3.125 3.597656-9.9375 11.429687-24.8125 28.519531l9.976563 19.171875c-3.101563 2.117187-6.75 4.019531-11.023437 5.613281zm0 0" fill="#84b017"/><path d="m68.996094 252.039062c-.265625-6.867187.566406-14.882812 2.855468-24.226562.105469-.429688.246094-.84375.40625-1.242188.328126-.800781.773438-1.535156 1.308594-2.167968 2.132813-2.597656 5.695313-3.824219 9.148438-2.8125.335937.097656.683594.203125 1.027344.308594 9.964843 3.03125 25.335937 9.386718 34.46875 21.421874 2.550781 3.34375 4.609374 7.128907 5.933593 11.40625 2.628907 8.472657 2.382813 18.878907-2.703125 31.597657-.871094 2.203125-1.898437 4.472656-3.078125 6.828125 0 0-1.574219.101562-4.171875.015625-.898437-.035157-1.929687-.089844-3.046875-.179688-11.585937-.964843-33.691406-5.855469-40.289062-28.820312-1.03125-3.578125-1.6875-7.605469-1.859375-12.128907zm0 0" fill="#9bcf1b"/><path d="m68.996094 252.039062c-.265625-6.867187.566406-14.882812 2.855468-24.226562.105469-.429688.246094-.84375.40625-1.242188.328126-.800781.773438-1.535156 1.308594-2.167968 7.179688 4.625 14.5 10.898437 19.929688 19.226562 2.710937 4.136719 10.46875 12.261719 11.984375 17.476563 2.09375 7.183593 7.292969 19.894531 8.714843 32.0625-.902343-.03125-1.929687-.089844-3.050781-.179688-11.582031-.960937-33.691406-5.851562-40.289062-28.820312-1.03125-3.578125-1.6875-7.605469-1.859375-12.128907zm0 0" fill="#b9e746"/><path d="m68.996094 252.039062c3.710937-.589843 8.976562-1.4375 16.421875-2.648437l-13.160157-22.820313c1.65625-4.015624 6.144532-6.242187 10.457032-4.980468.335937.097656.683594.203125 1.03125.308594 3.945312 6.820312 10.375 17.929687 20.617187 35.613281 5.976563-6.03125 10.449219-10.652344 13.851563-14.191407 2.550781 3.34375 4.605468 7.128907 5.929687 11.40625l-13.304687 13.710938 10.601562 17.886719 2.121094 3.570312c4.152344 6.304688 10.363281 12.871094 15.5 16.375 2.792969 1.910157 3.511719 5.726563 1.605469 8.527344-1.90625 2.789063-5.722657 3.511719-8.515625 1.601563-6.476563-4.417969-13.902344-12.230469-18.921875-19.898438-.0625-.097656.207031.367188-2.085938-3.511719-2.414062-4.0625-7.667969-12.917969-19.128906-32.246093l-21.160156 3.425781c-1.03125-3.578125-1.6875-7.605469-1.859375-12.128907zm0 0" fill="#84b017"/><path d="m443.179688 252.039062c.269531-6.867187-.566407-14.882812-2.855469-24.226562-.105469-.429688-.246094-.84375-.40625-1.242188-.328125-.800781-.773438-1.535156-1.308594-2.167968-2.132813-2.597656-5.695313-3.824219-9.148437-2.8125-.335938.097656-.679688.203125-1.027344.308594-9.964844 3.03125-25.335938 9.386718-34.46875 21.421874-2.550782 3.34375-4.609375 7.128907-5.933594 11.40625-2.628906 8.472657-2.382812 18.878907 2.707031 31.597657.867188 2.203125 1.894531 4.472656 3.078125 6.828125 0 0 1.570313.101562 4.167969.015625.898437-.035157 1.929687-.089844 3.046875-.179688 11.585938-.964843 33.695312-5.855469 40.292969-28.820312 1.027343-3.578125 1.683593-7.605469 1.855469-12.128907zm0 0" fill="#9bcf1b"/><path d="m443.179688 252.039062c.269531-6.867187-.566407-14.882812-2.855469-24.226562-.105469-.429688-.246094-.84375-.40625-1.242188-.328125-.800781-.773438-1.535156-1.308594-2.167968-7.175781 4.625-14.496094 10.898437-19.925781 19.226562-2.714844 4.136719-10.472656 12.261719-11.988282 17.476563-2.089843 7.183593-7.289062 19.894531-8.710937 32.0625.898437-.03125 1.925781-.089844 3.046875-.179688 11.585938-.960937 33.691406-5.851562 40.289062-28.820312 1.03125-3.578125 1.6875-7.605469 1.859376-12.128907zm0 0" fill="#b9e746"/><path d="m443.179688 252.039062c-3.707032-.589843-8.976563-1.4375-16.421876-2.648437l13.160157-22.820313c-1.65625-4.015624-6.144531-6.242187-10.457031-4.980468-.335938.097656-.683594.203125-1.027344.308594-3.945313 6.820312-10.378906 17.929687-20.621094 35.613281-5.976562-6.03125-10.449219-10.652344-13.847656-14.191407-2.554688 3.34375-4.609375 7.128907-5.933594 11.40625l13.304688 13.710938-10.601563 17.886719-2.121094 3.570312c-4.148437 6.304688-10.363281 12.871094-15.5 16.375-2.792969 1.910157-3.511719 5.726563-1.605469 8.527344 1.90625 2.789063 5.722657 3.511719 8.515626 1.601563 6.476562-4.417969 13.902343-12.230469 18.921874-19.898438.0625-.097656-.207031.367188 2.085938-3.511719 2.414062-4.0625 7.667969-12.917969 19.128906-32.246093l21.160156 3.425781c1.03125-3.578125 1.6875-7.605469 1.859376-12.128907zm0 0" fill="#84b017"/><g fill="#c1bde0"><path d="m247.699219 38.417969c-3.199219-2.648438-7.933594-2.203125-10.582031.996093l-32.328126 39.03125c-3.835937 4.636719-9.492187 7.292969-15.507812 7.292969h-127.820312c-10.710938 0-20.707032 4.792969-27.414063 13.144531l-32.390625 40.308594c-2.597656 3.234375-2.082031 7.96875 1.152344 10.566406 1.386718 1.117188 3.050781 1.65625 4.703125 1.65625 2.199219 0 4.378906-.960937 5.863281-2.808593l32.390625-40.308594c3.839844-4.78125 9.5625-7.523437 15.695313-7.523437h127.820312c10.507812 0 20.382812-4.644532 27.085938-12.738282l32.328124-39.035156c2.644532-3.195312 2.199219-7.933594-.996093-10.582031zm0 0"/><path d="m295.632812 88.035156c6.703126 8.09375 16.578126 12.738282 27.085938 12.738282h127.820312c6.132813 0 11.855469 2.742187 15.699219 7.523437l32.386719 40.308594c1.484375 1.851562 3.664062 2.8125 5.863281 2.8125 1.652344 0 3.316407-.542969 4.703125-1.660157 3.234375-2.597656 3.75-7.328124 1.152344-10.566406l-32.390625-40.308594c-6.710937-8.351562-16.703125-13.144531-27.414063-13.144531h-127.820312c-6.015625 0-11.671875-2.65625-15.507812-7.292969l-32.328126-39.03125c-2.648437-3.199218-7.386718-3.644531-10.582031-.996093-3.195312 2.648437-3.644531 7.386719-.996093 10.582031zm0 0"/><path d="m509.191406 256.589844c-3.234375-2.601563-7.964844-2.085938-10.566406 1.148437l-32.386719 40.3125c-3.84375 4.78125-9.566406 7.523438-15.699219 7.523438h-127.820312c-10.507812 0-20.382812 4.644531-27.085938 12.738281l-32.328124 39.035156c-2.644532 3.195313-2.199219 7.933594.996093 10.582032 1.402344 1.160156 3.101563 1.726562 4.789063 1.726562 2.160156 0 4.308594-.925781 5.792968-2.722656l32.328126-39.03125c3.835937-4.636719 9.492187-7.296875 15.507812-7.296875h127.820312c10.710938 0 20.703126-4.789063 27.414063-13.140625l32.390625-40.308594c2.597656-3.234375 2.082031-7.96875-1.152344-10.566406zm0 0"/><path d="m216.367188 318.3125c-6.703126-8.09375-16.578126-12.738281-27.089844-12.738281h-127.816406c-6.132813 0-11.855469-2.742188-15.699219-7.523438l-32.386719-40.308593c-2.601562-3.234376-7.328125-3.753907-10.566406-1.152344-3.234375 2.597656-3.75 7.332031-1.152344 10.566406l32.390625 40.308594c6.707031 8.351562 16.703125 13.140625 27.414063 13.140625h127.816406c6.019531 0 11.671875 2.660156 15.511718 7.296875l32.328126 39.03125c1.484374 1.796875 3.628906 2.722656 5.789062 2.722656 1.691406 0 3.386719-.566406 4.792969-1.726562 3.195312-2.648438 3.640625-7.386719.992187-10.582032zm0 0"/><path d="m354.257812 188.125c-4.152343 0-7.515624 3.367188-7.515624 7.515625 0 47.257813-47.113282 79.890625-85.945313 47.621094-2.308594-1.921875-5.585937-2.304688-8.3125-.859375-2.300781 1.222656-13.664063 13.828125-34.113281 13.828125-29.285156 0-53.109375-27.179688-53.109375-60.585938 0-4.152343-3.367188-7.515625-7.515625-7.515625-4.152344 0-7.515625 3.363282-7.515625 7.515625 0 60.523438 60.933593 95.988281 105.769531 63.046875 44.765625 32.890625 105.773438-2.449218 105.773438-63.046875 0-4.152343-3.367188-7.519531-7.515626-7.519531zm0 0"/></g><path d="m263.652344 230.519531c-2.746094 2.953125-5.972656 5.71875-9.722656 8.246094 0 0-56.617188-30.183594-4.066407-110.375 1.421875-2.175781 4.6875-2.125 6.332031-.101563 1.824219 2.234376 4.328126 6.085938 6.976563 11.066407 11.441406 21.476562 25.671875 64.164062.480469 91.164062zm0 0" fill="#fb5858"/><path d="m263.652344 230.519531c-12.507813-12.75-28.660156-41.21875-.480469-91.164062 11.441406 21.476562 25.671875 64.164062.480469 91.164062zm0 0" fill="#fc7979"/><path d="m256.144531 225.078125c-.148437 4.378906-.851562 8.945313-2.214843 13.6875 0 0-62.011719 12.625-73.292969-82.578125-.3125-2.59375 2.222656-4.636719 4.789062-4.15625 4.019531.769531 11.074219 3.15625 19.230469 7.105469 22.226562 10.773437 52.589844 33.152343 51.488281 65.941406zm0 0" fill="#fd9a9a"/><path d="m256.144531 225.078125c-17.414062-3.921875-41.757812-18.230469-51.488281-65.941406 22.226562 10.773437 52.589844 33.152343 51.488281 65.941406zm0 0" fill="#fdbcbc"/><path d="m325.960938 156.191406c-.664063 5.570313-1.492188 10.773438-2.484376 15.632813-10.464843 51.609375-38.003906 64.246093-55.488281 66.871093-8.988281 1.363282-15.324219.070313-15.324219.070313-15.300781-53.332031 52.082032-83.597656 68.507813-86.734375 2.5625-.480469 5.097656 1.5625 4.789063 4.160156zm0 0" fill="#fd9a9a"/><path d="m323.476562 171.824219c-10.464843 51.609375-38.003906 64.246093-55.488281 66.871093-.542969-34.28125 33.300781-57.042968 55.488281-66.871093zm0 0" fill="#fdbcbc"/></svg>