<svg height="512pt" viewBox="-26 0 512 512.00102" width="512pt" xmlns="http://www.w3.org/2000/svg"><path d="m457.671875 120.554688c-3.476563-2.398438-8.238281-1.511719-10.632813 1.96875-.332031.476562-21.597656 30.949218-50.183593 47.261718 32.144531-43.226562-8.402344-94.503906-54.636719-77.441406-22.191406 8.195312-33.582031 32.914062-25.386719 55.105469 10.730469 29.066406 51.167969 31.246093 63.023438 5.515625 10.316406-22.402344-8.941407-45.875-31.160157-38.632813-10.601562 2.820313-11.910156 17.445313-1.90625 22.054688 5.945313 2.738281 13.148438.125 15.773438-6.171875 7.765625 5.355468 6.074219 20.023437-4.980469 24.101562-5.152343 1.902344-10.734375 1.683594-15.722656-.613281-18.34375-8.449219-16.226563-38.929687 5.65625-47.007813 24.023437-8.878906 46.878906 8.785157 45.515625 32.347657-1.097656 18.9375-18.878906 39.636719-42.4375 37.90625-9.878906-.726563-19.433594-5.335938-28.285156-10.214844-27.902344-15.363281-48.503906-20.433594-50.429688-21.144531-25.90625-9.464844-38.984375-39.105469-39.148437-39.480469-1.664063-3.878906-6.152344-5.675781-10.03125-4.015625-3.882813 1.65625-5.6875 6.152344-4.027344 10.035156.378906.882813 6.023437 13.808594 17.511719 26.515625-46.417969-4.535156-98.496094 11.035157-118.957032 50.503907-7.230468 4.066406-27.222656 17.367187-36.878906 44.535156-10.285156 28.9375-5.59375 63.753906 13.949219 103.484375 14.167969 28.8125 21.273437 56.234375 21.121094 81.507812-.332031 54.277344-34.351563 83.214844-69.734375 77.257813-19.847656-3.335938-33.214844-22.101563-29.875-41.953125 2.53125-15.035157 16.75-25.179688 31.800781-22.644531 17.136719 2.878906 22.816406 24.800781 10.804687 33.355468-9.328124 6.640625-21.363281.726563-19.65625-9.425781.703126-4.164063-2.105468-8.109375-6.273437-8.808594-15.082031-2.535156-12.371094 31.730469 12.269531 35.875 16.433594 2.757813 32.039063-8.351562 34.804688-24.78125 3.277344-19.492187-9.917969-38.019531-29.410156-41.300781-23.382813-3.925781-45.488282 11.804688-49.421876 35.191406-4.742187 28.183594 14.230469 54.835938 42.421876 59.578125 3.914062.660157 7.8125.980469 11.667968.980469 51.320313 0 97.207032-58.601562 65.5625-151.816406 20.785156 18.953125 46.90625 50.847656 34.449219 83.601562-1.914063 5.027344 1.828125 10.367188 7.144531 10.367188 3.085938 0 5.988282-1.878906 7.148438-4.929688 22.253906-58.503906-48.128906-109.613281-60.832032-118.246094-19.484374-39.820312-28.742187-85.363281 1.972657-117.078124-2.324219 40.523437 35.507812 66.851562 69.992187 54.121093 22.191406-8.191406 33.578125-32.910156 25.386719-55.105469-6.847656-18.542968-27.503906-28.054687-46.046875-21.214843-15.625 5.769531-23.644531 23.175781-17.878906 38.804687 7.40625 20.046875 33.910156 21.058594 39.40625 9.132813 2.71875-5.902344.136718-12.890625-5.761719-15.609375-5.914063-2.722656-13-.144532-15.6875 5.957031-7.398437-5.414063-5.816406-19.863281 5.21875-23.9375 10.628906-3.925781 22.476563 1.53125 26.402344 12.164063 5.273437 14.28125-2.058594 30.1875-16.335938 35.460937-18.835937 6.957031-39.824219-2.714844-46.777343-21.550781-19.433594-52.628906 70.25-116.136719 186.75-51.988282 7.0625 3.890626 15.128906 7.898438 23.847656 10.214844 8.328125 3.394532 16.554687 4.878906 24.570312 4.878906 51.578125 0 94.234375-61.039062 96.292969-64.042968 2.394531-3.476563 1.511719-8.238282-1.96875-10.628906zm0 0" fill="#9bcf1b"/><path d="m250.242188 81.539062c0 3.769532-3.082032 6.851563-6.847657 6.851563h-35.382812c-3.761719 0-6.847657-3.082031-6.847657-6.851563l6.230469-63.378906c0-9.984375 8.175781-18.160156 18.160157-18.160156 3.941406 0 7.605468 1.273438 10.589843 3.4375.792969.570312 1.542969 1.203125 2.234375 1.898438 3.292969 3.296874 5.335938 7.832031 5.335938 12.824218zm0 0" fill="#d63030"/><path d="m250.242188 81.539062c0 3.769532-3.082032 6.851563-6.847657 6.851563h-24.480469c-.953124-1.179687-1.535156-2.675781-1.535156-4.308594l6.226563-63.386719c0-8.027343 5.28125-14.878906 12.539062-17.257812.789063.570312 1.539063 1.207031 2.234375 1.898438 3.292969 3.296874 5.332032 7.832031 5.332032 12.824218zm0 0" fill="#f44545"/><path d="m241.917969 108.929688-3.660157.195312h-25.113281c-1.234375 0-2.449219-.0625-3.65625-.195312-17.378906-1.820313-30.925781-16.523438-30.925781-34.390626v-44.347656c0-8.210937 10.832031-11.183594 15.019531-4.117187l32.121094 55.058593zm0 0" fill="#fb5858"/><path d="m221.152344 109.125h-8.007813c-1.234375 0-2.449219-.0625-3.65625-.195312-17.378906-1.820313-30.925781-16.523438-30.925781-34.390626v-38.425781l30.910156 52.984375zm0 0" fill="#fc7979"/><path d="m272.84375 30.191406v44.347656c0 17.867188-13.546875 32.570313-30.925781 34.390626-1.203125.132812-2.421875.195312-3.65625.195312h-25.113281l-3.660157-.195312 16.214844-27.796876 32.121094-55.058593c4.1875-7.066407 15.019531-4.09375 15.019531 4.117187zm0 0" fill="#fd9a9a"/><path d="m272.84375 41.351562v33.1875c0 17.867188-13.546875 32.570313-30.925781 34.390626-1.203125.132812-2.421875.195312-3.65625.195312h-7.007813l5.382813-9.230469 32.121093-55.058593c1.042969-1.757813 2.488282-2.890626 4.085938-3.484376zm0 0" fill="#fdbcbc"/></svg>