<svg height="511pt" viewBox="0 -127 511.99987 511" width="511pt" xmlns="http://www.w3.org/2000/svg"><path d="m295.863281 132.960938c0 6.125-5.007812 11.132812-11.121093 11.132812h-57.484376c-6.113281 0-11.121093-5.007812-11.121093-11.132812l10.117187-102.960938c0-16.21875 13.28125-29.5 29.503906-29.5 6.40625 0 12.355469 2.066406 17.203126 5.585938 1.285156.921874 2.503906 1.957031 3.628906 3.082031 5.351562 5.351562 8.667968 12.722656 8.667968 20.832031zm0 0" fill="#d63030"/><path d="m295.863281 132.960938c0 6.125-5.007812 11.132812-11.121093 11.132812h-39.773438c-1.550781-1.914062-2.492188-4.347656-2.492188-7.003906l10.117188-102.972656c0-13.039063 8.574219-24.167969 20.367188-28.03125 1.285156.921874 2.503906 1.957031 3.628906 3.082031 5.351562 5.351562 8.667968 12.722656 8.667968 20.832031zm0 0" fill="#f44545"/><path d="m282.335938 177.457031-5.9375.316407h-40.796876c-2.007812 0-3.984374-.101563-5.941406-.316407-28.234375-2.960937-50.242187-26.84375-50.242187-55.871093v-72.039063c0-13.339844 17.597656-18.167969 24.402343-6.691406l52.179688 89.449219zm0 0" fill="#fb5858"/><path d="m248.609375 177.773438h-13.007813c-2.007812 0-3.984374-.101563-5.941406-.316407-28.234375-2.960937-50.242187-26.84375-50.242187-55.871093v-62.417969l50.210937 86.070312zm0 0" fill="#fc7979"/><path d="m332.582031 49.546875v72.039063c0 29.027343-22.011719 52.910156-50.246093 55.871093-1.953126.214844-3.933594.316407-5.9375.316407h-40.796876l-5.941406-.316407 26.339844-45.152343 52.179688-89.449219c6.800781-11.476563 24.402343-6.648438 24.402343 6.691406zm0 0" fill="#fd9a9a"/><path d="m332.582031 67.675781v53.910157c0 29.027343-22.011719 52.910156-50.246093 55.871093-1.953126.214844-3.933594.316407-5.9375.316407h-11.386719l8.75-14.996094 52.179687-89.445313c1.691406-2.851562 4.042969-4.695312 6.640625-5.65625zm0 0" fill="#fdbcbc"/><path d="m426.914062 156.460938c-2.835937 4.421874-6.40625 8.457031-10.847656 11.824218-8.972656 6.820313-21.523437 10.9375-39 9.996094-2.085937-.113281-4.246094-.296875-6.488281-.558594-.902344-.101562-1.8125-.222656-2.746094-.355468 0 0-1.371093-3.296876-2.675781-8.566407-3.488281-14.050781-6.519531-42.125 18.136719-58.972656 3.8125-2.605469 8.292969-4.9375 13.542969-6.914063 7.90625-2.980468 17.550781-5.128906 29.269531-6.144531.160156-.019531.324219-.03125.484375-.03125 5.191406-.210937 9.703125 3.347657 10.859375 8.273438.152343.660156.253906 1.339843.285156 2.039062v.050781c.515625 12.53125-.519531 33.425782-10.820313 49.359376zm0 0" fill="#9bcf1b"/><path d="m370.578125 177.722656c12.601563-23.226562 34.15625-53.875 66.871094-72.710937.152343.660156.253906 1.339843.285156 2.039062.992187 23.84375-3.609375 78.09375-67.15625 70.671875zm0 0" fill="#b9e746"/><path d="m146.84375 168.800781c-.121094.476563-.234375.933594-.355469 1.378907-1.183593 4.460937-2.320312 7.1875-2.320312 7.1875-3.222657.457031-6.296875.75-9.234375.914062-17.582032.941406-30.171875-3.214844-39.15625-10.121094-4.429688-3.382812-7.988282-7.449218-10.824219-11.890625-10.191406-15.925781-11.203125-36.738281-10.6875-49.21875 0-.070312.011719-.144531.019531-.214843.253906-4.136719 2.800782-7.59375 6.328125-9.171876 1.53125-.691406 3.242188-1.027343 5.027344-.914062.082031.011719.171875.011719.253906.019531 11.839844 1.023438 21.5625 3.203125 29.511719 6.234375 5.242188 2 9.722656 4.351563 13.523438 6.976563 24.421874 16.867187 21.390624 44.808593 17.914062 58.820312zm0 0" fill="#9bcf1b"/><path d="m146.488281 170.179688c-31.023437-12.90625-54.289062-46.230469-65.875-72.515626 1.601563-.722656 3.40625-1.054687 5.28125-.894531 71.460938 6.15625 65.550781 54.828125 60.59375 73.410157zm0 0" fill="#b9e746"/><path d="m437.734375 107.101562c-10.71875 12.652344-32.363281 38.1875-33.417969 39.425782l22.597656 9.933594c-2.835937 4.421874-6.40625 8.457031-10.847656 11.824218-4.886718-2.179687-11.902344-5.285156-22.097656-9.695312l-16.902344 19.691406-3.355468 3.902344c-5.746094 7.371094-11 17.273437-13.078126 24.707031-1.125 4.042969-5.3125 6.40625-9.367187 5.28125-4.042969-1.136719-6.40625-5.332031-5.273437-9.378906 2.617187-9.355469 8.84375-21.179688 15.859374-30.128907.109376-.121093-.214843.242188 3.304688-3.863281 3.820312-4.441406 12.125-14.113281 30.320312-35.3125l-12.183593-23.660156c3.8125-2.605469 8.292969-4.9375 13.542969-6.914063l9.285156 18.035157 20.46875-24.210938c5.191406-.210937 9.703125 3.347657 10.859375 8.273438.152343.660156.253906 1.339843.285156 2.039062zm0 0" fill="#6e9213"/><path d="m158.675781 212.453125c-3.328125 0-6.378906-2.199219-7.308593-5.5625-2.082032-7.433594-7.332032-17.335937-13.078126-24.707031l-3.355468-3.902344-16.933594-19.71875-22.222656 9.597656c-4.429688-3.382812-7.988282-7.449218-10.824219-11.890625l22.675781-9.792969c-5.117187-6.082031-22.859375-27.167968-33.34375-39.640624.253906-4.136719 2.800782-7.59375 6.328125-9.171876 1.53125-.691406 3.242188-1.027343 5.027344-.914062l20.316406 24.238281 9.449219-17.984375c5.242188 2 9.722656 4.351563 13.523438 6.976563l-12.378907 23.539062 30.292969 35.28125 3.09375 3.609375c5.382812 6.265625 13.148438 19.929688 16.066406 30.382813 1.359375 4.847656-2.289062 9.660156-7.328125 9.660156zm0 0" fill="#6e9213"/><path d="m508.988281 227.609375c-3.34375-2.535156-8.117187-1.878906-10.652343 1.464844-19.675782 25.953125-61.386719 13.292969-63.042969-19.382813 1.164062-4.792968-2.476563-9.398437-7.390625-9.398437h-343.546875c-4.199219 0-7.605469 3.402343-7.605469 7.601562 0 33.484375-42.785156 47.960938-63.085938 21.179688-2.539062-3.347657-7.308593-4-10.652343-1.464844-3.347657 2.535156-4.003907 7.308594-1.464844 10.652344 26.910156 35.5 83.191406 20.910156 89.839844-22.761719h329.230469c6.652343 43.695312 62.933593 58.246094 89.839843 22.761719 2.535157-3.34375 1.878907-8.113281-1.46875-10.652344zm0 0" fill="#a6e0ec"/><g fill="#44bfd7"><path d="m57.496094 208.242188c0 8.875-7.191406 16.066406-16.066406 16.066406-8.871094 0-16.0625-7.191406-16.0625-16.066406 0-8.871094 7.191406-16.0625 16.0625-16.0625 8.875 0 16.066406 7.191406 16.066406 16.0625zm0 0"/><path d="m486.632812 208.242188c0 8.875-7.191406 16.066406-16.066406 16.066406-8.871094 0-16.0625-7.191406-16.0625-16.066406 0-8.871094 7.191406-16.0625 16.0625-16.0625 8.875 0 16.066406 7.191406 16.066406 16.0625zm0 0"/></g></svg>