<svg id="Capa_1" enable-background="new 0 0 497 497" height="512" viewBox="0 0 497 497" width="512" xmlns="http://www.w3.org/2000/svg"><g><path d="m102.284 335.821 14.35 106.297c4.244 31.431 31.074 54.882 62.79 54.882h138.152c31.716 0 58.546-23.451 62.789-54.882l14.35-106.297z" fill="#f8d070"/><path d="m124.815 335.821h-22.531l14.35 106.297c4.244 31.431 31.074 54.882 62.79 54.882h91.429c-66.948-30.169-119.98-88.556-146.038-161.179z" fill="#fbc072"/><path d="m391.601 243.143h-271.587l-45.314 31.793 10.775 53.238c4.153 20.52 22.19 35.272 43.125 35.272h239.799c20.936 0 38.973-14.752 43.125-35.272l10.775-53.238z" fill="#f8e86a"/><path d="m107.737 251.756-33.037 23.18 10.775 53.239c4.153 20.52 22.189 35.271 43.125 35.271h7.726c-16.212-33.879-26.254-71.67-28.589-111.69z" fill="#f8d070"/><path d="m256.998 15.757h-16.996c-110.491 0-200.061 89.571-200.061 200.061 0 24.554 13.304 47.18 34.76 59.117 21.613 12.025 47.907 12.025 69.52 0 21.613-12.025 47.907-12.025 69.52 0 21.613 12.025 47.907 12.025 69.52 0 21.613-12.025 47.906-12.025 69.52 0 21.613 12.025 47.906 12.025 69.52 0 21.456-11.938 34.76-34.564 34.76-59.117-.001-110.491-89.572-200.061-200.063-200.061z" fill="#ffb3dd"/><path d="m107.192 233.75c0-84.83 34.678-161.009 89.723-213.327-89.779 19.709-156.975 99.699-156.975 195.395 0 24.554 13.304 47.18 34.76 59.117 11.364 6.323 24.022 9.316 36.614 8.99-2.706-16.29-4.122-33.055-4.122-50.175z" fill="#ff9dd3"/><g fill="#fff"><ellipse cx="133.164" cy="211.809" rx="42.557" ry="33.89"/><ellipse cx="363.836" cy="211.809" rx="42.557" ry="33.89"/></g><g><path d="m157.966 186.685c-4.142 0-7.5-3.358-7.5-7.5v-17.397c0-4.142 3.358-7.5 7.5-7.5s7.5 3.358 7.5 7.5v17.397c0 4.142-3.358 7.5-7.5 7.5z" fill="#423e4f"/></g><g><path d="m339.034 186.685c-4.142 0-7.5-3.358-7.5-7.5v-17.397c0-4.142 3.358-7.5 7.5-7.5s7.5 3.358 7.5 7.5v17.397c0 4.142-3.358 7.5-7.5 7.5z" fill="#423e4f"/></g><g><path d="m248.5 197.041c-11.315 0-22.076-4.901-29.523-13.446-2.721-3.123-2.396-7.86.727-10.582 3.123-2.721 7.86-2.396 10.582.727 4.598 5.276 11.236 8.301 18.214 8.301s13.617-3.026 18.215-8.301c2.721-3.123 7.459-3.448 10.582-.727s3.448 7.459.727 10.582c-7.448 8.545-18.209 13.446-29.524 13.446z" fill="#423e4f"/></g><g><path d="m171.868 125.781-13.657-13.656c-6.258-6.258-6.258-16.403-.001-22.661 6.258-6.257 16.403-6.258 22.661-.001l13.657 13.656c6.258 6.258 6.258 16.403.001 22.661-6.258 6.258-16.402 6.258-22.661.001z" fill="#50e0e0"/></g><g><path d="m40.709 189.444-13.657-13.656c-6.258-6.258-6.258-16.403-.001-22.661 6.258-6.257 16.403-6.258 22.661-.001l13.657 13.656c6.258 6.258 6.258 16.403.001 22.661-6.259 6.258-16.403 6.258-22.661.001z" fill="#f8e86a"/></g><g><path d="m181.149 41.01-13.657-13.656c-6.258-6.258-6.258-16.403-.001-22.661 6.258-6.257 16.403-6.258 22.661-.001l13.657 13.656c6.258 6.258 6.258 16.403.001 22.661-6.259 6.259-16.403 6.259-22.661.001z" fill="#5bd6fd"/></g><g><path d="m82.063 68.318 13.656-13.657c6.258-6.258 16.403-6.258 22.661-.001 6.257 6.258 6.258 16.403.001 22.661l-13.656 13.657c-6.258 6.258-16.403 6.258-22.661.001-6.258-6.258-6.258-16.402-.001-22.661z" fill="#fd5f7e"/></g><g><path d="m325.132 125.781 13.657-13.656c6.258-6.258 6.258-16.403.001-22.661-6.258-6.257-16.403-6.258-22.661-.001l-13.657 13.656c-6.258 6.258-6.258 16.403-.001 22.661 6.258 6.258 16.402 6.258 22.661.001z" fill="#f8e86a"/></g><g><path d="m456.291 189.444 13.657-13.656c6.258-6.258 6.258-16.403.001-22.661-6.258-6.257-16.403-6.258-22.661-.001l-13.657 13.656c-6.258 6.258-6.258 16.403-.001 22.661 6.259 6.258 16.403 6.258 22.661.001z" fill="#50e0e0"/></g><g><path d="m315.852 41.01 13.657-13.656c6.258-6.258 6.258-16.403.001-22.661-6.258-6.257-16.403-6.258-22.661-.001l-13.657 13.656c-6.258 6.258-6.258 16.403-.001 22.661 6.258 6.259 16.402 6.259 22.661.001z" fill="#ff748f"/></g><g><path d="m414.937 68.318-13.656-13.657c-6.258-6.258-16.403-6.258-22.661-.001-6.257 6.258-6.258 16.403-.001 22.661l13.656 13.657c6.258 6.258 16.403 6.258 22.661.001 6.258-6.258 6.258-16.402.001-22.661z" fill="#5bd6fd"/></g></g></svg>