<svg height="512pt" viewBox="0 -23 512.00007 512" width="512pt" xmlns="http://www.w3.org/2000/svg"><path d="m157.003906 292.257812-30.042968 97.988282-112.972657 67.234375c-8.515625-6.648438-13.988281-17.015625-13.988281-28.660157v-248.859374c0-6.964844 1.957031-13.46875 5.347656-18.980469l100.796875 40.90625zm0 0" fill="#61caff"/><path d="m257.175781 292.257812 30.042969 97.988282 112.972656 67.234375c8.511719-6.648438 13.988282-17.011719 13.988282-28.660157v-248.859374c0-6.960938-1.957032-13.464844-5.351563-18.980469l-100.796875 40.90625zm0 0" fill="#61caff"/><path d="m147.097656 324.5625 9.90625-32.304688-50.855468-90.371093-100.800782-40.90625c-3.390625 5.511719-5.347656 12.015625-5.347656 18.980469v17.265624zm0 0" fill="#4fbbf3"/><path d="m257.175781 292.257812 143.015625 165.222657c-6.167968 4.820312-13.921875 7.691406-22.363281 7.691406h-341.476563c-8.441406 0-16.195312-2.871094-22.363281-7.691406l143.015625-165.222657zm0 0" fill="#6ee4ff"/><path d="m414.179688 197.226562v-17.265624c0-6.964844-1.957032-13.46875-5.347657-18.980469l-100.800781 40.90625-50.855469 90.371093 9.90625 32.304688zm0 0" fill="#4fbbf3"/><path d="m257.175781 292.257812h-100.171875l-20.230468 23.367188 16.515624 14.296875c14.941407 12.929687 34.042969 20.050781 53.800782 20.050781 19.753906 0 38.859375-7.121094 53.800781-20.050781l16.511719-14.296875zm0 0" fill="#61caff"/><path d="m408.828125 160.980469-151.652344 131.277343-16.515625 14.296876c-19.273437 16.683593-47.867187 16.683593-67.144531 0l-16.511719-14.296876-151.65625-131.277343c6.390625-10.417969 17.890625-17.371094 31.003906-17.371094h341.476563c13.113281 0 24.613281 6.953125 31 17.371094zm0 0" fill="#6ee4ff"/><path d="m367.574219 30.25c-99.859375-97.59375-265.273438 60.226562-4.90625 199.71875 3.0625 1.640625 6.75 1.640625 9.8125 0 260.367187-139.492188 94.953125-297.3125-4.90625-199.71875zm0 0" fill="#f55d67"/><path d="m314.171875 1.425781c-89.933594-16.386719-168.246094 112.421875 48.496094 228.542969 3.0625 1.640625 6.75 1.640625 9.8125 0 3.601562-1.929688 7.105469-3.863281 10.546875-5.796875-179.128906-100.808594-140.878906-209.15625-68.855469-222.746094zm0 0" fill="#ff3d5d"/><g fill="#4b3f4e"><path d="m303.234375 114.621094c-4.265625 0-7.726563-3.457032-7.726563-7.726563v-11.640625c0-4.269531 3.460938-7.726562 7.726563-7.726562s7.726563 3.457031 7.726563 7.726562v11.640625c0 4.269531-3.460938 7.726563-7.726563 7.726563zm0 0"/><path d="m431.914062 114.621094c-4.265624 0-7.726562-3.457032-7.726562-7.726563v-11.640625c0-4.269531 3.460938-7.726562 7.726562-7.726562 4.269532 0 7.726563 3.457031 7.726563 7.726562v11.640625c0 4.269531-3.457031 7.726563-7.726563 7.726563zm0 0"/><path d="m367.574219 120.839844c-8.417969 0-16.328125-3.523438-21.695313-9.667969-2.808594-3.214844-2.484375-8.09375.730469-10.902344 3.210937-2.808593 8.09375-2.480469 10.902344.730469 2.4375 2.785156 6.101562 4.386719 10.0625 4.386719 3.960937 0 7.628906-1.597657 10.0625-4.386719 2.808593-3.210938 7.691406-3.539062 10.90625-.730469 3.210937 2.808594 3.539062 7.6875.730469 10.902344-5.371094 6.144531-13.28125 9.667969-21.699219 9.667969zm0 0"/></g></svg>