<svg height="511pt" viewBox="-93 0 511 511.999" width="511pt" xmlns="http://www.w3.org/2000/svg"><path d="m64.015625 122.328125c34.371094 34.488281 82.554687 42.203125 107.617187 17.226563 25.058594-24.976563 17.511719-73.183594-16.859374-107.675782-34.375-34.488281-82.554688-42.199218-107.617188-17.222656s-17.511719 73.183594 16.859375 107.671875zm0 0" fill="#29ce69"/><path d="m150.871094 28.136719c-11.347656 11.054687-29.449219 33.648437-34.898438 69.027343-3.375 21.925782-10.390625 37.949219-17.4375 49.203126 27.277344 12.109374 55.738282 10.5 73.097656-6.804688 25.0625-24.976562 17.511719-73.183594-16.859374-107.671875-1.285157-1.289063-2.582032-2.539063-3.902344-3.753906zm0 0" fill="#00c140"/><path d="m93.335938 60.996094c7.941406-7.914063 20.792968-7.890625 28.707031.050781l60.777343 60.980469c-2.449218 6.582031-6.160156 12.519531-11.1875 17.527344-5.027343 5.011718-10.976562 8.703124-17.566406 11.132812l-60.777344-60.984375c-7.914062-7.9375-7.894531-20.792969.046876-28.707031zm0 0" fill="#00a62c"/><path d="m115.972656 97.160156c-.695312 4.507813-1.539062 8.761719-2.511718 12.785156l40.605468 40.742188c6.589844-2.429688 12.539063-6.121094 17.566406-11.132812 5.027344-5.007813 8.738282-10.945313 11.1875-17.527344l-57.265624-57.460938c-4.195313 9.328125-7.667969 20.167969-9.582032 32.59375zm0 0" fill="#008c1c"/><path d="m186.425781 260.441406h-47.757812v-157.570312l47.757812 19.015625zm0 0" fill="#b9ecc2"/><path d="m267.726562 301.105469c0-40.050781-47.089843-72.519531-105.179687-72.519531s-105.183594 32.46875-105.183594 72.519531 47.09375 72.519531 105.183594 72.519531 105.179687-32.46875 105.179687-72.519531zm0 0" fill="#e7896e"/><path d="m165.6875 265.152344c-14.65625-3.601563-16.027344-23.792969-2.015625-29.402344 11.730469-4.695312 22.910156-5.261719 22.910156-5.261719-7.722656-1.242187-15.765625-1.902343-24.035156-1.902343-58.09375 0-105.183594 32.46875-105.183594 72.519531s47.089844 72.519531 105.183594 72.519531c47.730469 0 88.039063-21.921875 100.890625-51.957031-30.511719-34.8125-71.257812-50.003907-97.75-56.515625zm0 0" fill="#dd6642"/><path d="m26.753906 327.320312 32.449219 152.941407c3.925781 18.503906 20.261719 31.738281 39.175781 31.738281h128.332032c18.917968 0 35.253906-13.234375 39.179687-31.738281l32.449219-152.941407zm0 0" fill="#ffbe73"/><path d="m165.445312 411.53125c62.003907-12.695312 123.070313-37.902344 123.070313-37.902344l9.824219-46.304687h-271.585938l32.449219 152.9375c3.925781 18.503906 20.261719 31.738281 39.175781 31.738281h51.144532c-9.496094-11.839844-15.902344-25.441406-20.214844-38.554688-8.960938-27.234374 8.054687-56.160156 36.136718-61.914062zm0 0" fill="#ffa93f"/><path d="m289.1875 349.304688h-253.285156c-19.550782 0-35.402344-15.847657-35.402344-35.402344 0-19.554688 15.851562-35.402344 35.402344-35.402344h253.285156c19.550781 0 35.402344 15.847656 35.402344 35.402344.003906 19.554687-15.847656 35.402344-35.402344 35.402344zm0 0" fill="#f9ee80"/><path d="m91.148438 313.902344c0-19.554688 15.851562-35.402344 35.402343-35.402344h-90.644531c-19.554688 0-35.40625 15.847656-35.40625 35.402344 0 19.554687 15.851562 35.402344 35.40625 35.402344h90.644531c-19.550781 0-35.402343-15.847657-35.402343-35.402344zm0 0" fill="#eedb00"/><path d="m261.035156 122.40625c34.433594-34.429688 42.0625-82.625 17.042969-107.644531-25.019531-25.015625-73.210937-17.386719-107.644531 17.042969-34.429688 34.429687-42.058594 82.625-17.039063 107.644531 25.015625 25.019531 73.210938 17.390625 107.640625-17.042969zm0 0" fill="#73da8c"/><path d="m231.824219 61.023438c-7.929688-7.925782-20.78125-7.925782-28.707031 0l-60.882813 60.882812c2.4375 6.585938 6.140625 12.527344 11.160156 17.546875s10.960938 8.722656 17.546875 11.160156l60.882813-60.882812c7.925781-7.925781 7.925781-20.777344 0-28.707031zm0 0" fill="#29ce69"/><path d="m105.042969 418.070312c0-9.351562-9.519531-16.933593-21.261719-16.933593-11.746094 0-21.265625 7.582031-21.265625 16.933593 0 9.351563 9.519531 16.933594 21.265625 16.933594 11.742188 0 21.261719-7.582031 21.261719-16.933594zm0 0" fill="#ff83b4"/><path d="m262.574219 418.070312c0-9.351562-9.519531-16.933593-21.261719-16.933593-11.746094 0-21.265625 7.582031-21.265625 16.933593 0 9.351563 9.519531 16.933594 21.265625 16.933594 11.742188 0 21.261719-7.582031 21.261719-16.933594zm0 0" fill="#ff83b4"/><g fill="#454545"><path d="m226.21875 409.171875c-4.269531 0-7.726562-3.457031-7.726562-7.726563v-12.824218c0-4.269532 3.457031-7.726563 7.726562-7.726563 4.265625 0 7.726562 3.457031 7.726562 7.726563v12.824218c0 4.269532-3.460937 7.726563-7.726562 7.726563zm0 0"/><path d="m98.875 409.171875c-4.269531 0-7.726562-3.457031-7.726562-7.726563v-12.824218c0-4.269532 3.457031-7.726563 7.726562-7.726563s7.726562 3.457031 7.726562 7.726563v12.824218c0 4.269532-3.460937 7.726563-7.726562 7.726563zm0 0"/><path d="m167.824219 393.726562c-1.730469 2.542969-4.253907 2.847657-5.277344 2.847657s-3.589844-.277344-5.277344-2.847657c-2.34375-3.566406-7.136719-4.558593-10.699219-2.214843-3.566406 2.34375-4.558593 7.132812-2.21875 10.699219 4.039063 6.148437 10.839844 9.816406 18.195313 9.816406s14.152344-3.667969 18.191406-9.816406c2.34375-3.566407 1.351563-8.355469-2.214843-10.699219-1.308594-.859375-7.089844-3.082031-10.699219 2.214843zm0 0"/></g></svg>