<svg height="512pt" viewBox="-74 0 512 512" width="512pt" xmlns="http://www.w3.org/2000/svg"><path d="m74.175781 405.367188c10.359375-13.089844 26.839844-27.117188 49.445313-25.976563 41.722656 2.101563 67.011718 31.972656 49.492187 55.613281-18.222656 24.59375-42.101562 10.285156-54.066406-6.734375-8.113281-11.546875-22.796875-16.238281-36.25-11.980469-9.542969 3.019532-13.039063-5.335937-8.621094-10.921874zm0 0" fill="#29ce69"/><path d="m123.414062 433.75c12.792969 14.226562 33.480469 23.140625 49.699219 1.257812 15.769531-21.285156-3.152343-47.625-37.53125-54.195312-5.257812 10.140625-11.273437 27.195312-12.167969 52.9375zm0 0" fill="#00a62c"/><path d="m182.183594 512c-12.632813 0-22.875-10.242188-22.875-22.875v-183.234375h45.75v183.234375c0 12.632812-10.242188 22.875-22.875 22.875zm0 0" fill="#73da8c"/><g fill="#eedb00"><path d="m258.539062 92.710938c-7.558593 17.367187-27.769531 25.316406-45.136718 17.757812-17.371094-7.5625-25.320313-27.769531-17.757813-45.140625 7.558594-17.367187 41.886719-57.746094 59.253907-50.183594 17.371093 7.558594 11.203124 60.195313 3.640624 77.566407zm0 0"/><path d="m168.722656 299.035156c7.558594-17.367187-.390625-37.578125-17.761718-45.136718-17.367188-7.558594-37.574219.390624-45.136719 17.757812-7.558594 17.367188-13.726563 70.007812 3.640625 77.566406 17.367187 7.5625 51.695312-32.820312 59.257812-50.1875zm0 0"/><path d="m299.441406 172.90625c-17.625 6.9375-37.539062-1.730469-44.472656-19.359375-6.933594-17.625 1.734375-37.539063 19.359375-44.472656 17.628906-6.9375 70.453125-11.214844 77.386719 6.410156 6.9375 17.628906-34.644532 50.488281-52.273438 57.421875zm0 0"/><path d="m90.035156 255.292969c17.628906-6.9375 26.296875-26.847657 19.359375-44.476563-6.933593-17.625-26.84375-26.292968-44.472656-19.359375-17.628906 6.933594-59.207031 39.796875-52.273437 57.421875 6.933593 17.628906 59.761718 13.347656 77.386718 6.414063zm0 0"/><path d="m271.65625 258.539062c-17.367188-7.558593-25.320312-27.769531-17.757812-45.136718 7.558593-17.367188 27.769531-25.320313 45.136718-17.757813 17.367188 7.558594 57.746094 41.886719 50.1875 59.253907-7.558594 17.371093-60.199218 11.203124-77.566406 3.640624zm0 0"/><path d="m65.328125 168.722656c17.367187 7.558594 37.578125-.390625 45.136719-17.761718 7.5625-17.367188-.386719-37.574219-17.757813-45.136719-17.367187-7.558594-70.007812-13.726563-77.566406 3.640625-7.558594 17.367187 32.820313 51.695312 50.1875 59.257812zm0 0"/><path d="m191.457031 299.441406c-6.933593-17.628906 1.734375-37.539062 19.359375-44.472656 17.628906-6.9375 37.539063 1.730469 44.476563 19.359375 6.933593 17.628906 11.214843 70.453125-6.414063 77.386719-17.625 6.9375-50.488281-34.644532-57.421875-52.273438zm0 0"/><path d="m109.074219 90.035156c6.933593 17.628906 26.847656 26.296875 44.472656 19.359375 17.628906-6.933593 26.296875-26.84375 19.359375-44.472656-6.933594-17.628906-39.792969-59.210937-57.421875-52.273437-17.625 6.933593-13.347656 59.761718-6.410156 77.386718zm0 0"/></g><path d="m216.480469 69.667969c0 18.941406-15.355469 34.296875-34.300781 34.296875-18.941407 0-34.296876-15.355469-34.296876-34.296875 0-18.941407 15.355469-69.667969 34.300782-69.667969 18.941406 0 34.296875 50.726562 34.296875 69.667969zm0 0" fill="#f9ee80"/><path d="m216.480469 294.695312c0-18.941406-15.355469-34.296874-34.300781-34.296874-18.941407 0-34.296876 15.355468-34.296876 34.296874 0 18.941407 15.355469 69.667969 34.296876 69.667969 18.945312 0 34.300781-50.722656 34.300781-69.667969zm0 0" fill="#f9ee80"/><path d="m285.996094 126.875c-13.394532 13.394531-35.113282 13.394531-48.507813 0s-13.394531-35.109375 0-48.503906c13.394531-13.394532 60.121094-38.40625 73.515625-25.011719 13.394532 13.394531-11.613281 60.121094-25.007812 73.515625zm0 0" fill="#f9ee80"/><path d="m126.875 285.996094c13.394531-13.394532 13.394531-35.113282 0-48.507813s-35.109375-13.394531-48.503906 0c-13.394532 13.394531-38.40625 60.121094-25.011719 73.515625 13.394531 13.394532 60.121094-11.613281 73.515625-25.007812zm0 0" fill="#f9ee80"/><path d="m294.695312 216.480469c-18.941406 0-34.296874-15.355469-34.296874-34.296875 0-18.945313 15.355468-34.300782 34.296874-34.300782 18.941407 0 69.667969 15.355469 69.667969 34.300782 0 18.941406-50.722656 34.296875-69.667969 34.296875zm0 0" fill="#f9ee80"/><path d="m69.667969 216.480469c18.941406 0 34.300781-15.355469 34.300781-34.296875 0-18.945313-15.359375-34.300782-34.300781-34.300782-18.941407 0-69.667969 15.355469-69.667969 34.300782 0 18.941406 50.726562 34.296875 69.667969 34.296875zm0 0" fill="#f9ee80"/><path d="m237.488281 285.996094c-13.394531-13.394532-13.394531-35.113282 0-48.507813s35.113281-13.394531 48.507813 0c13.394531 13.394531 38.402344 60.121094 25.007812 73.515625-13.394531 13.394532-60.121094-11.613281-73.515625-25.007812zm0 0" fill="#f9ee80"/><path d="m78.371094 126.875c13.394531 13.394531 35.109375 13.394531 48.503906 0s13.394531-35.109375 0-48.503906c-13.394531-13.394532-60.121094-38.40625-73.515625-25.011719s11.617187 60.121094 25.011719 73.515625zm0 0" fill="#f9ee80"/><path d="m295.484375 182.183594c0 62.574218-50.726563 113.300781-113.300781 113.300781-62.574219 0-113.300782-50.726563-113.300782-113.300781 0-62.574219 50.726563-113.300782 113.300782-113.300782 62.574218 0 113.300781 50.726563 113.300781 113.300782zm0 0" fill="#e7896e"/><path d="m290.1875 405.367188c-10.355469-13.089844-26.839844-27.117188-49.445312-25.976563-41.722657 2.101563-67.007813 31.972656-49.488282 55.613281 18.21875 24.59375 42.097656 10.285156 54.0625-6.734375 8.117188-11.546875 22.800782-16.238281 36.253906-11.980469 9.542969 3.019532 13.035157-5.335937 8.617188-10.921874zm0 0" fill="#b9ecc2"/><path d="m126.230469 200.578125c0-9.355469-9.519531-16.933594-21.265625-16.933594-11.742188 0-21.261719 7.578125-21.261719 16.933594 0 9.351563 9.519531 16.929687 21.261719 16.929687 11.746094 0 21.265625-7.578124 21.265625-16.929687zm0 0" fill="#ffb3dd"/><path d="m283.761719 200.578125c0-9.355469-9.519531-16.933594-21.265625-16.933594-11.742188 0-21.261719 7.578125-21.261719 16.933594 0 9.351563 9.519531 16.929687 21.261719 16.929687 11.746094 0 21.265625-7.578124 21.265625-16.929687zm0 0" fill="#ffb3dd"/><path d="m189.007812 185.132812c-1.730468 2.539063-4.253906 2.847657-5.277343 2.847657-1.023438 0-3.585938-.28125-5.277344-2.847657-2.34375-3.566406-7.132813-4.558593-10.699219-2.21875-3.566406 2.34375-4.558594 7.136719-2.214844 10.703126 4.035157 6.144531 10.839844 9.816406 18.191407 9.816406 7.355469 0 14.15625-3.671875 18.195312-9.816406 2.339844-3.566407 1.347657-8.359376-2.21875-10.703126-1.304687-.855468-7.089843-3.082031-10.699219 2.21875zm0 0" fill="#454545"/><path d="m122.519531 188.75c-.960937-.804688-1.921875-1.019531-2.460937-1.019531-.539063 0-1.570313.132812-2.457032 1.019531-3.019531 3.015625-7.910156 3.015625-10.925781 0-3.019531-3.015625-3.019531-7.910156-.003906-10.925781 3.578125-3.578125 8.332031-5.546875 13.386719-5.546875 5.058594 0 9.8125 1.972656 13.386718 5.546875 3.019532 3.015625 3.019532 7.910156 0 10.925781-1.507812 1.507812-6.050781 4.082031-10.925781 0zm0 0" fill="#454545"/><path d="m249.863281 188.75c-.960937-.804688-1.921875-1.019531-2.460937-1.019531-.535156 0-1.570313.132812-2.457032 1.019531-3.019531 3.015625-7.910156 3.015625-10.929687 0-3.015625-3.015625-3.015625-7.910156 0-10.925781 3.574219-3.578125 8.332031-5.546875 13.386719-5.546875 5.054687 0 9.808594 1.972656 13.386718 5.546875 3.015626 3.015625 3.015626 7.910156 0 10.925781-1.507812 1.507812-6.050781 4.082031-10.925781 0zm0 0" fill="#454545"/><path d="m153.933594 136.300781-7.277344-7.277343c-5.707031-5.707032-5.707031-14.964844 0-20.671876l7.277344-7.277343c5.707031-5.707031 14.964844-5.707031 20.671875 0l7.277343 7.277343c5.707032 5.707032 5.707032 14.964844 0 20.671876l-7.277343 7.277343c-5.707031 5.707031-14.964844 5.707031-20.671875 0zm0 0" fill="#dd6642"/><path d="m193.570312 265.039062-7.277343-7.277343c-5.710938-5.710938-5.710938-14.964844 0-20.671875l7.277343-7.277344c5.707032-5.707031 14.960938-5.707031 20.671876 0l7.277343 7.277344c5.707031 5.707031 5.707031 14.960937 0 20.671875l-7.277343 7.277343c-5.707032 5.707032-14.964844 5.707032-20.671876 0zm0 0" fill="#dd6642"/></svg>