<svg height="512pt" viewBox="-94 0 512 512" width="512pt" xmlns="http://www.w3.org/2000/svg"><path d="m250.617188 444.105469c28.164062-10.25 45.070312-39.175781 51.984374-53.59375 2.25-4.695313.207032-10.3125-4.535156-12.460938-14.5625-6.601562-46.105468-17.894531-74.273437-7.644531-28.164063 10.253906-45.070313 39.179688-51.980469 53.597656-2.253906 4.691406-.207031 10.3125 4.535156 12.460938 14.558594 6.601562 46.105469 17.894531 74.269532 7.640625zm0 0" fill="#b4de87"/><path d="m293.023438 407.460938c-99.371094 56.277343-109.472657 15.316406-100.769532-14.609376-9.921875 11.109376-16.671875 23.289063-20.441406 31.148438-2.253906 4.695312-.207031 10.316406 4.535156 12.464844 14.558594 6.601562 46.105469 17.890625 74.269532 7.640625 19.273437-7.015625 33.273437-22.773438 42.40625-36.644531zm0 0" fill="#92d18a"/><path d="m205.488281 426.304688c-3.066406 0-5.941406-1.894532-7.050781-4.9375-1.414062-3.894532.59375-8.195313 4.484375-9.613282l63.433594-23.089844c3.894531-1.414062 8.195312.59375 9.613281 4.484376 1.417969 3.890624-.589844 8.195312-4.480469 9.613281l-63.4375 23.085937c-.84375.308594-1.710937.457032-2.5625.457032zm0 0" fill="#92d18a"/><path d="m74.214844 399.800781c-28.164063-10.25-45.070313-39.179687-51.980469-53.59375-2.253906-4.695312-.207031-10.316406 4.535156-12.464843 14.558594-6.601563 46.105469-17.890626 74.269531-7.640626 28.164063 10.25 45.070313 39.175782 51.984376 53.59375 2.25 4.695313.207031 10.3125-4.535157 12.464844-14.5625 6.597656-46.109375 17.890625-74.273437 7.640625zm0 0" fill="#b4de87"/><path d="m119.34375 381.996094c-.851562 0-1.714844-.144532-2.5625-.453125l-63.4375-23.089844c-3.890625-1.417969-5.898438-5.71875-4.480469-9.613281 1.414063-3.890625 5.714844-5.902344 9.613281-4.480469l63.4375 23.089844c3.890626 1.414062 5.898438 5.71875 4.480469 9.613281-1.109375 3.042969-3.984375 4.933594-7.050781 4.933594zm0 0" fill="#92d18a"/><path d="m179.386719 267.761719h-33.941407v227.269531c0 9.371094 7.597657 16.96875 16.96875 16.96875 9.375 0 16.96875-7.597656 16.96875-16.96875v-227.269531zm0 0" fill="#8ec15d"/><path d="m145.449219 313.761719c5.277343 2.554687 11.074219 3.910156 16.96875 3.910156s11.6875-1.355469 16.96875-3.910156v-46h-33.941407v46zm0 0" fill="#57b33b"/><path d="m201.28125 296.3125-5.617188-3.390625c-3.894531-2.347656-8.769531-2.347656-12.664062 0l-8.808594 5.3125c-7.242187 4.367187-16.308594 4.367187-23.550781 0l-8.804687-5.3125c-3.894532-2.347656-8.773438-2.347656-12.667969 0l-5.617188 3.390625c-5.421875 3.269531-12.0625-1.738281-10.410156-7.847656l15.644531-57.976563h67.261719l15.648437 57.976563c1.648438 6.109375-4.992187 11.113281-10.414062 7.847656zm0 0" fill="#aede7b"/><path d="m162.417969 0c-11.671875 0-22.429688 6.308594-28.132813 16.492188-15.789062 28.199218-24.078125 59.980468-24.078125 92.304687v10.207031h104.417969v-10.207031c0-32.324219-8.289062-64.101563-24.078125-92.304687-5.699219-10.183594-16.460937-16.492188-28.128906-16.492188zm0 0" fill="#eb8db3"/><path d="m176.652344 165.714844h-31.109375c-51.128907 0-92.582031-41.449219-92.582031-92.582032v-11.386718c0-12.601563-6.65625-24.265625-17.507813-30.671875-6.425781-3.792969-3.734375-13.640625 3.726563-13.640625h42.152343c52.644531 0 95.320313 42.675781 95.320313 95.320312zm0 0" fill="#e06576"/><path d="m148.179688 165.714844h31.109374c51.132813 0 92.582032-41.449219 92.582032-92.582032v-11.386718c0-12.601563 6.65625-24.265625 17.507812-30.671875 6.425782-3.792969 3.738282-13.640625-3.726562-13.640625h-42.152344c-52.644531 0-95.320312 42.675781-95.320312 95.320312zm0 0" fill="#eb8db3"/><path d="m144.707031 267.761719h38.699219c63.59375 0 115.152344-51.558594 115.152344-115.152344v-14.164063c0-15.675781 8.28125-30.183593 21.777344-38.152343 7.992187-4.71875 4.644531-16.96875-4.636719-16.96875h-52.429688c-65.480469 0-118.5625 53.082031-118.5625 118.5625zm0 0" fill="#e06576"/><path d="m180.125 267.761719h-38.699219c-63.59375 0-115.148437-51.558594-115.148437-115.152344v-14.164063c0-15.675781-8.28125-30.183593-21.78125-38.152343-7.992188-4.71875-4.644532-16.96875 4.636718-16.96875h52.433594c65.476563 0 118.558594 53.082031 118.558594 118.5625zm0 0" fill="#eb8db3"/><path d="m140.644531 395.4375c-72.515625-5.835938-99.21875-39.753906-93.921875-69.023438-8.078125 2.296876-15 5.082032-19.953125 7.328126-4.742187 2.152343-6.785156 7.769531-4.535156 12.464843 6.910156 14.414063 23.816406 43.34375 51.980469 53.59375 23.839844 8.675781 50.09375 1.921875 66.429687-4.363281zm0 0" fill="#92d18a"/></svg>